<svg xmlns="http://www.w3.org/2000/svg" xmlns:xlink="http://www.w3.org/1999/xlink" contentStyleType="text/css" data-diagram-type="CLASS" height="488px" preserveAspectRatio="none" style="width:1585px;height:488px;background:#FFFFFF;" version="1.1" viewBox="0 0 1585 488" width="1585px" zoomAndPan="magnify"><defs/><g><!--class IRegistrarChamados--><g class="entity" data-entity="IRegistrarChamados" data-source-line="4" data-uid="ent0002" id="entity_IRegistrarChamados"><rect fill="#F1F1F1" height="48" rx="2.5" ry="2.5" style="stroke:#181818;stroke-width:0.5;" width="174.3105" x="1017" y="7"/><ellipse cx="1032" cy="23" fill="#B4A7E5" rx="11" ry="11" style="stroke:#181818;stroke-width:1;"/><path d="M1027.9219,18.7656 L1027.9219,16.6094 L1035.3125,16.6094 L1035.3125,18.7656 L1032.8438,18.7656 L1032.8438,26.8438 L1035.3125,26.8438 L1035.3125,29 L1027.9219,29 L1027.9219,26.8438 L1030.3906,26.8438 L1030.3906,18.7656 L1027.9219,18.7656 Z " fill="#000000"/><text fill="#000000" font-family="sans-serif" font-size="14" font-style="italic" lengthAdjust="spacing" textLength="142.3105" x="1046" y="27.8467">IRegistrarChamados</text><line style="stroke:#181818;stroke-width:0.5;" x1="1018" x2="1190.3105" y1="39" y2="39"/><line style="stroke:#181818;stroke-width:0.5;" x1="1018" x2="1190.3105" y1="47" y2="47"/></g><!--class TelaAberturaChamado--><g class="entity" data-entity="TelaAberturaChamado" data-source-line="6" data-uid="ent0003" id="entity_TelaAberturaChamado"><rect fill="#F1F1F1" height="121.4531" rx="2.5" ry="2.5" style="stroke:#181818;stroke-width:0.5;" width="190.0605" x="7" y="169.5"/><ellipse cx="22" cy="189.6328" fill="#ADD1B2" rx="11" ry="11" style="stroke:#181818;stroke-width:1;"/><path d="M24.9688,195.2734 Q24.3906,195.5703 23.75,195.7109 Q23.1094,195.8672 22.4063,195.8672 Q19.9063,195.8672 18.5781,194.2266 Q17.2656,192.5703 17.2656,189.4453 Q17.2656,186.3203 18.5781,184.6641 Q19.9063,183.0078 22.4063,183.0078 Q23.1094,183.0078 23.75,183.1641 Q24.4063,183.3203 24.9688,183.6172 L24.9688,186.3359 Q24.3438,185.7578 23.75,185.4922 Q23.1563,185.2109 22.5313,185.2109 Q21.1875,185.2109 20.5,186.2891 Q19.8125,187.3516 19.8125,189.4453 Q19.8125,191.5391 20.5,192.6172 Q21.1875,193.6797 22.5313,193.6797 Q23.1563,193.6797 23.75,193.4141 Q24.3438,193.1328 24.9688,192.5547 L24.9688,195.2734 Z " fill="#000000"/><text fill="#000000" font-family="sans-serif" font-size="12" font-style="italic" lengthAdjust="spacing" textLength="71.9883" x="79.0361" y="185.6387">&#171;boundary&#187;</text><text fill="#000000" font-family="sans-serif" font-size="14" lengthAdjust="spacing" textLength="158.0605" x="36" y="201.4639">TelaAberturaChamado</text><line style="stroke:#181818;stroke-width:0.5;" x1="8" x2="196.0605" y1="209.7656" y2="209.7656"/><line style="stroke:#181818;stroke-width:0.5;" x1="8" x2="196.0605" y1="217.7656" y2="217.7656"/><text fill="#000000" font-family="sans-serif" font-size="14" lengthAdjust="spacing" textLength="137.5391" x="13" y="234.7607">+exibirFormulario()</text><text fill="#000000" font-family="sans-serif" font-size="14" lengthAdjust="spacing" textLength="108.8623" x="13" y="251.0576">+enviar(dados)</text><text fill="#000000" font-family="sans-serif" font-size="14" lengthAdjust="spacing" textLength="166.5781" x="13" y="267.3545">+mostrarConfirmacao()</text><text fill="#000000" font-family="sans-serif" font-size="14" lengthAdjust="spacing" textLength="136.4727" x="13" y="283.6514">+mostrarErro(msg)</text></g><!--class ControleAberturaChamado--><g class="entity" data-entity="ControleAberturaChamado" data-source-line="13" data-uid="ent0004" id="entity_ControleAberturaChamado"><rect fill="#F1F1F1" height="72.5625" rx="2.5" ry="2.5" style="stroke:#181818;stroke-width:0.5;" width="353.8584" x="349" y="193.5"/><ellipse cx="427.7021" cy="213.6328" fill="#ADD1B2" rx="11" ry="11" style="stroke:#181818;stroke-width:1;"/><path d="M430.6709,219.2734 Q430.0928,219.5703 429.4521,219.7109 Q428.8115,219.8672 428.1084,219.8672 Q425.6084,219.8672 424.2803,218.2266 Q422.9678,216.5703 422.9678,213.4453 Q422.9678,210.3203 424.2803,208.6641 Q425.6084,207.0078 428.1084,207.0078 Q428.8115,207.0078 429.4521,207.1641 Q430.1084,207.3203 430.6709,207.6172 L430.6709,210.3359 Q430.0459,209.7578 429.4521,209.4922 Q428.8584,209.2109 428.2334,209.2109 Q426.8896,209.2109 426.2021,210.2891 Q425.5146,211.3516 425.5146,213.4453 Q425.5146,215.5391 426.2021,216.6172 Q426.8896,217.6797 428.2334,217.6797 Q428.8584,217.6797 429.4521,217.4141 Q430.0459,217.1328 430.6709,216.5547 L430.6709,219.2734 Z " fill="#000000"/><text fill="#000000" font-family="sans-serif" font-size="12" font-style="italic" lengthAdjust="spacing" textLength="56.6719" x="513.8433" y="209.6387">&#171;control&#187;</text><text fill="#000000" font-family="sans-serif" font-size="14" lengthAdjust="spacing" textLength="187.9541" x="448.2021" y="225.4639">ControleAberturaChamado</text><line style="stroke:#181818;stroke-width:0.5;" x1="350" x2="701.8584" y1="233.7656" y2="233.7656"/><line style="stroke:#181818;stroke-width:0.5;" x1="350" x2="701.8584" y1="241.7656" y2="241.7656"/><text fill="#000000" font-family="sans-serif" font-size="14" lengthAdjust="spacing" textLength="341.8584" x="355" y="258.7607">+abrirChamado(dados, usuarioId: int): Chamado</text></g><!--class Chamado--><g class="entity" data-entity="Chamado" data-source-line="17" data-uid="ent0005" id="entity_Chamado"><rect fill="#F1F1F1" height="202.9375" rx="2.5" ry="2.5" style="stroke:#181818;stroke-width:0.5;" width="178.0313" x="1400" y="66.5"/><ellipse cx="1451.3174" cy="86.6328" fill="#ADD1B2" rx="11" ry="11" style="stroke:#181818;stroke-width:1;"/><path d="M1454.2861,92.2734 Q1453.708,92.5703 1453.0674,92.7109 Q1452.4268,92.8672 1451.7236,92.8672 Q1449.2236,92.8672 1447.8955,91.2266 Q1446.583,89.5703 1446.583,86.4453 Q1446.583,83.3203 1447.8955,81.6641 Q1449.2236,80.0078 1451.7236,80.0078 Q1452.4268,80.0078 1453.0674,80.1641 Q1453.7236,80.3203 1454.2861,80.6172 L1454.2861,83.3359 Q1453.6611,82.7578 1453.0674,82.4922 Q1452.4736,82.2109 1451.8486,82.2109 Q1450.5049,82.2109 1449.8174,83.2891 Q1449.1299,84.3516 1449.1299,86.4453 Q1449.1299,88.5391 1449.8174,89.6172 Q1450.5049,90.6797 1451.8486,90.6797 Q1452.4736,90.6797 1453.0674,90.4141 Q1453.6611,90.1328 1454.2861,89.5547 L1454.2861,92.2734 Z " fill="#000000"/><text fill="#000000" font-family="sans-serif" font-size="12" font-style="italic" lengthAdjust="spacing" textLength="49.6465" x="1480.4424" y="82.6387">&#171;entity&#187;</text><text fill="#000000" font-family="sans-serif" font-size="14" lengthAdjust="spacing" textLength="66.8965" x="1471.8174" y="98.4639">Chamado</text><line style="stroke:#181818;stroke-width:0.5;" x1="1401" x2="1577.0313" y1="106.7656" y2="106.7656"/><text fill="#000000" font-family="sans-serif" font-size="14" lengthAdjust="spacing" textLength="40.7969" x="1406" y="123.7607">-id:int</text><text fill="#000000" font-family="sans-serif" font-size="14" lengthAdjust="spacing" textLength="86.1533" x="1406" y="140.0576">-titulo:string</text><text fill="#000000" font-family="sans-serif" font-size="14" lengthAdjust="spacing" textLength="116.9355" x="1406" y="156.3545">-descricao:string</text><text fill="#000000" font-family="sans-serif" font-size="14" lengthAdjust="spacing" textLength="166.0313" x="1406" y="172.6514">-dataAbertura:datetime</text><text fill="#000000" font-family="sans-serif" font-size="14" lengthAdjust="spacing" textLength="92.9756" x="1406" y="188.9482">-status:string</text><text fill="#000000" font-family="sans-serif" font-size="14" lengthAdjust="spacing" textLength="106.7021" x="1406" y="205.2451">-impacto:string</text><text fill="#000000" font-family="sans-serif" font-size="14" lengthAdjust="spacing" textLength="111.125" x="1406" y="221.542">-urgencia:string</text><text fill="#000000" font-family="sans-serif" font-size="14" lengthAdjust="spacing" textLength="121.666" x="1406" y="237.8389">-prioridade:string</text><line style="stroke:#181818;stroke-width:0.5;" x1="1401" x2="1577.0313" y1="245.1406" y2="245.1406"/><text fill="#000000" font-family="sans-serif" font-size="14" lengthAdjust="spacing" textLength="55.5215" x="1406" y="262.1357">+abrir()</text></g><!--class Usuario--><g class="entity" data-entity="Usuario" data-source-line="29" data-uid="ent0006" id="entity_Usuario"><rect fill="#F1F1F1" height="105.1563" rx="2.5" ry="2.5" style="stroke:#181818;stroke-width:0.5;" width="101.6465" x="1053" y="177.5"/><ellipse cx="1075.3991" cy="197.6328" fill="#ADD1B2" rx="11" ry="11" style="stroke:#181818;stroke-width:1;"/><path d="M1078.3678,203.2734 Q1077.7897,203.5703 1077.1491,203.7109 Q1076.5084,203.8672 1075.8053,203.8672 Q1073.3053,203.8672 1071.9772,202.2266 Q1070.6647,200.5703 1070.6647,197.4453 Q1070.6647,194.3203 1071.9772,192.6641 Q1073.3053,191.0078 1075.8053,191.0078 Q1076.5084,191.0078 1077.1491,191.1641 Q1077.8053,191.3203 1078.3678,191.6172 L1078.3678,194.3359 Q1077.7428,193.7578 1077.1491,193.4922 Q1076.5553,193.2109 1075.9303,193.2109 Q1074.5866,193.2109 1073.8991,194.2891 Q1073.2116,195.3516 1073.2116,197.4453 Q1073.2116,199.5391 1073.8991,200.6172 Q1074.5866,201.6797 1075.9303,201.6797 Q1076.5553,201.6797 1077.1491,201.4141 Q1077.7428,201.1328 1078.3678,200.5547 L1078.3678,203.2734 Z " fill="#000000"/><text fill="#000000" font-family="sans-serif" font-size="12" font-style="italic" lengthAdjust="spacing" textLength="49.6465" x="1092.8221" y="193.6387">&#171;entity&#187;</text><text fill="#000000" font-family="sans-serif" font-size="14" lengthAdjust="spacing" textLength="53.2041" x="1091.0433" y="209.4639">Usuario</text><line style="stroke:#181818;stroke-width:0.5;" x1="1054" x2="1153.6465" y1="217.7656" y2="217.7656"/><text fill="#000000" font-family="sans-serif" font-size="14" lengthAdjust="spacing" textLength="40.7969" x="1059" y="234.7607">-id:int</text><text fill="#000000" font-family="sans-serif" font-size="14" lengthAdjust="spacing" textLength="89.6465" x="1059" y="251.0576">-nome:string</text><text fill="#000000" font-family="sans-serif" font-size="14" lengthAdjust="spacing" textLength="88.5664" x="1059" y="267.3545">-email:string</text><line style="stroke:#181818;stroke-width:0.5;" x1="1054" x2="1153.6465" y1="274.6563" y2="274.6563"/></g><!--class IChamadoRepository--><g class="entity" data-entity="IChamadoRepository" data-source-line="35" data-uid="ent0007" id="entity_IChamadoRepository"><rect fill="#F1F1F1" height="64.2969" rx="2.5" ry="2.5" style="stroke:#181818;stroke-width:0.5;" width="178.0977" x="1015" y="318"/><ellipse cx="1030" cy="334" fill="#B4A7E5" rx="11" ry="11" style="stroke:#181818;stroke-width:1;"/><path d="M1025.9219,329.7656 L1025.9219,327.6094 L1033.3125,327.6094 L1033.3125,329.7656 L1030.8438,329.7656 L1030.8438,337.8438 L1033.3125,337.8438 L1033.3125,340 L1025.9219,340 L1025.9219,337.8438 L1028.3906,337.8438 L1028.3906,329.7656 L1025.9219,329.7656 Z " fill="#000000"/><text fill="#000000" font-family="sans-serif" font-size="14" font-style="italic" lengthAdjust="spacing" textLength="146.0977" x="1044" y="338.8467">IChamadoRepository</text><line style="stroke:#181818;stroke-width:0.5;" x1="1016" x2="1192.0977" y1="350" y2="350"/><line style="stroke:#181818;stroke-width:0.5;" x1="1016" x2="1192.0977" y1="358" y2="358"/><text fill="#000000" font-family="sans-serif" font-size="14" lengthAdjust="spacing" textLength="139.1865" x="1021" y="374.9951">+save(c: Chamado)</text></g><!--class IHistoricoRepository--><g class="entity" data-entity="IHistoricoRepository" data-source-line="39" data-uid="ent0008" id="entity_IHistoricoRepository"><rect fill="#F1F1F1" height="64.2969" rx="2.5" ry="2.5" style="stroke:#181818;stroke-width:0.5;" width="410.0977" x="899" y="417"/><ellipse cx="1029.3613" cy="433" fill="#B4A7E5" rx="11" ry="11" style="stroke:#181818;stroke-width:1;"/><path d="M1025.2832,428.7656 L1025.2832,426.6094 L1032.6738,426.6094 L1032.6738,428.7656 L1030.2051,428.7656 L1030.2051,436.8438 L1032.6738,436.8438 L1032.6738,439 L1025.2832,439 L1025.2832,436.8438 L1027.752,436.8438 L1027.752,428.7656 L1025.2832,428.7656 Z " fill="#000000"/><text fill="#000000" font-family="sans-serif" font-size="14" font-style="italic" lengthAdjust="spacing" textLength="140.875" x="1049.8613" y="437.8467">IHistoricoRepository</text><line style="stroke:#181818;stroke-width:0.5;" x1="900" x2="1308.0977" y1="449" y2="449"/><line style="stroke:#181818;stroke-width:0.5;" x1="900" x2="1308.0977" y1="457" y2="457"/><text fill="#000000" font-family="sans-serif" font-size="14" lengthAdjust="spacing" textLength="398.0977" x="905" y="473.9951">+registrar(chamadoId: int, acao: string, detalhes: string)</text></g><!--link ControleAberturaChamado to IRegistrarChamados--><g class="link" data-entity-1="ControleAberturaChamado" data-entity-2="IRegistrarChamados" data-source-line="43" data-uid="lnk9" id="link_ControleAberturaChamado_IRegistrarChamados"><path codeLine="43" d="M565.25,193.25 C604.15,158.22 667.83,107.05 733,81 C825.39,44.07 922.0201,34.0529 999.0001,31.4729" fill="none" id="ControleAberturaChamado-to-IRegistrarChamados" style="stroke:#181818;stroke-width:1;stroke-dasharray:7,7;"/><polygon fill="none" points="1016.99,30.87,998.7991,25.4763,999.2011,37.4696,1016.99,30.87" style="stroke:#181818;stroke-width:1;"/></g><!--link TelaAberturaChamado to ControleAberturaChamado--><g class="link" data-entity-1="TelaAberturaChamado" data-entity-2="ControleAberturaChamado" data-source-line="44" data-uid="lnk10" id="link_TelaAberturaChamado_ControleAberturaChamado"><path codeLine="44" d="M197.18,230 C241.88,230 290.79,230 342.79,230" fill="none" id="TelaAberturaChamado-to-ControleAberturaChamado" style="stroke:#181818;stroke-width:1;"/><polygon fill="#181818" points="348.79,230,339.79,226,343.79,230,339.79,234,348.79,230" style="stroke:#181818;stroke-width:1;"/><text fill="#000000" font-family="sans-serif" font-size="13" lengthAdjust="spacing" textLength="90.1938" x="228" y="226.0669">enviar(dados)</text></g><!--link ControleAberturaChamado to Usuario--><g class="link" data-entity-1="ControleAberturaChamado" data-entity-2="Usuario" data-source-line="45" data-uid="lnk11" id="link_ControleAberturaChamado_Usuario"><path codeLine="45" d="M703.34,230 C824.07,230 969.78,230 1046.94,230" fill="none" id="ControleAberturaChamado-to-Usuario" style="stroke:#181818;stroke-width:1;stroke-dasharray:7,7;"/><polygon fill="#181818" points="1052.94,230,1043.94,226,1047.94,230,1043.94,234,1052.94,230" style="stroke:#181818;stroke-width:1;"/></g><!--link ControleAberturaChamado to Chamado--><g class="link" data-entity-1="ControleAberturaChamado" data-entity-2="Chamado" data-source-line="46" data-uid="lnk12" id="link_ControleAberturaChamado_Chamado"><path codeLine="46" d="M685.38,193.47 C751.08,180.08 828.33,166.59 899,160 C1080.43,143.08 1126.82,155.93 1309,160 C1338.54,160.66 1364.8164,161.6521 1393.7164,162.9921" fill="none" id="ControleAberturaChamado-to-Chamado" style="stroke:#181818;stroke-width:1;stroke-dasharray:7,7;"/><polygon fill="#181818" points="1399.71,163.27,1390.9049,158.8574,1394.7154,163.0384,1390.5344,166.8489,1399.71,163.27" style="stroke:#181818;stroke-width:1;"/><text fill="#000000" font-family="sans-serif" font-size="13" lengthAdjust="spacing" textLength="64.3145" x="1072" y="147.0669">criar/abrir</text></g><!--link ControleAberturaChamado to IChamadoRepository--><g class="link" data-entity-1="ControleAberturaChamado" data-entity-2="IChamadoRepository" data-source-line="47" data-uid="lnk13" id="link_ControleAberturaChamado_IChamadoRepository"><path codeLine="47" d="M702.56,266.57 C805.8,288.08 926.0461,313.1365 1008.8161,330.3765" fill="none" id="ControleAberturaChamado-to-IChamadoRepository" style="stroke:#181818;stroke-width:1;stroke-dasharray:7,7;"/><polygon fill="#181818" points="1014.69,331.6,1006.6947,325.8488,1009.7951,330.5804,1005.0634,333.6808,1014.69,331.6" style="stroke:#181818;stroke-width:1;"/><text fill="#000000" font-family="sans-serif" font-size="13" lengthAdjust="spacing" textLength="40.5742" x="781" y="271.0669">save()</text></g><!--link ControleAberturaChamado to IHistoricoRepository--><g class="link" data-entity-1="ControleAberturaChamado" data-entity-2="IHistoricoRepository" data-source-line="48" data-uid="lnk14" id="link_ControleAberturaChamado_IHistoricoRepository"><path codeLine="48" d="M595.94,266.5 C669.37,304.19 789.84,362.6 899,400 C916.92,406.14 930.1782,410.2332 949.1782,415.3732" fill="none" id="ControleAberturaChamado-to-IHistoricoRepository" style="stroke:#181818;stroke-width:1;stroke-dasharray:7,7;"/><polygon fill="#181818" points="954.97,416.94,947.3268,410.7285,950.1435,415.6343,945.2377,418.451,954.97,416.94" style="stroke:#181818;stroke-width:1;"/><text fill="#000000" font-family="sans-serif" font-size="13" lengthAdjust="spacing" textLength="134.9702" x="734" y="333.0669">registrar("Abertura")</text></g><!--link Usuario to Chamado--><g class="link" data-entity-1="Usuario" data-entity-2="Chamado" data-source-line="49" data-uid="lnk15" id="link_Usuario_Chamado"><path codeLine="49" d="M1155.07,221.89 C1217.12,211.85 1323.92,194.56 1399.82,182.28" fill="none" id="Usuario-Chamado" style="stroke:#181818;stroke-width:1;"/><text fill="#000000" font-family="sans-serif" font-size="13" lengthAdjust="spacing" textLength="29.561" x="1340" y="184.0669">abre</text><text fill="#000000" font-family="sans-serif" font-size="13" lengthAdjust="spacing" textLength="8.271" x="1162.512" y="233.8734">1</text><text fill="#000000" font-family="sans-serif" font-size="13" lengthAdjust="spacing" textLength="23.0356" x="1369.1119" y="196.0219">0..*</text></g><!--SRC=[VL9TRvj047pdLwnuWjPsqrSK8KLLelerRN_0Sgpngd1dxIrHqpJ_lMVW79nWly7irypS-Dzi3oZOWMdH-pjLuQfNsXfdV_1VWfkafPs2EX1kzWer2nbbPvE4hPBiq11i7wbXhuBoROyTriudoR0FVbABTnM9ze9J3MvlAzVR6kMvBE4b0VWCz8ShbWSdNT-YiClo4RPFZ9BLnuqZqhdnZBCxbWuDnjQfS2_YiiutUV8QAOHU5TVIHnfch9nOO2KS5On7Lz3x_aXeMnSGzEO5JFNP_jC-iieQHQs1woAC39y1xrjN18ficm6foHlXmFyCH3svLOGVKkveg7X5xVsybxi36ZqRxwKXQnZds26G5mvYw0sTb6OpatwDCg-AiAwZ-MhgaDi8l9xbOVBaaGxEipfvXXSO3djyeioSNCpVpNqFAGfqpSAan8XbPfoTdcG5nnGKCF9O1MCLsptvY0mdBcLWi_bNBgLtARRhTNanIyMxg5w-LqQhh_QyxGqXGVaolDVLYGNBYz7jwsmMBIzcRgTnAisJc9BqQnhiWFHci_cKpiW6clGV]--></g></svg>