<svg xmlns="http://www.w3.org/2000/svg" xmlns:xlink="http://www.w3.org/1999/xlink" contentStyleType="text/css" data-diagram-type="CLASS" height="486px" preserveAspectRatio="none" style="width:1480px;height:486px;background:#FFFFFF;" version="1.1" viewBox="0 0 1480 486" width="1480px" zoomAndPan="magnify"><defs/><g><!--class IAtualizarStatusChamado--><g class="entity" data-entity="IAtualizarStatusChamado" data-source-line="4" data-uid="ent0002" id="entity_IAtualizarStatusChamado"><rect fill="#F1F1F1" height="48" rx="2.5" ry="2.5" style="stroke:#181818;stroke-width:0.5;" width="209.6182" x="1163" y="215.5"/><ellipse cx="1178" cy="231.5" fill="#B4A7E5" rx="11" ry="11" style="stroke:#181818;stroke-width:1;"/><path d="M1173.9219,227.2656 L1173.9219,225.1094 L1181.3125,225.1094 L1181.3125,227.2656 L1178.8438,227.2656 L1178.8438,235.3438 L1181.3125,235.3438 L1181.3125,237.5 L1173.9219,237.5 L1173.9219,235.3438 L1176.3906,235.3438 L1176.3906,227.2656 L1173.9219,227.2656 Z " fill="#000000"/><text fill="#000000" font-family="sans-serif" font-size="14" font-style="italic" lengthAdjust="spacing" textLength="177.6182" x="1192" y="236.3467">IAtualizarStatusChamado</text><line style="stroke:#181818;stroke-width:0.5;" x1="1164" x2="1371.6182" y1="247.5" y2="247.5"/><line style="stroke:#181818;stroke-width:0.5;" x1="1164" x2="1371.6182" y1="255.5" y2="255.5"/></g><!--class TelaAtualizacaoStatus--><g class="entity" data-entity="TelaAtualizacaoStatus" data-source-line="6" data-uid="ent0003" id="entity_TelaAtualizacaoStatus"><rect fill="#F1F1F1" height="72.5625" rx="2.5" ry="2.5" style="stroke:#181818;stroke-width:0.5;" width="323.7256" x="7" y="303"/><ellipse cx="86.9565" cy="323.1328" fill="#ADD1B2" rx="11" ry="11" style="stroke:#181818;stroke-width:1;"/><path d="M89.9253,328.7734 Q89.3472,329.0703 88.7065,329.2109 Q88.0659,329.3672 87.3628,329.3672 Q84.8628,329.3672 83.5347,327.7266 Q82.2222,326.0703 82.2222,322.9453 Q82.2222,319.8203 83.5347,318.1641 Q84.8628,316.5078 87.3628,316.5078 Q88.0659,316.5078 88.7065,316.6641 Q89.3628,316.8203 89.9253,317.1172 L89.9253,319.8359 Q89.3003,319.2578 88.7065,318.9922 Q88.1128,318.7109 87.4878,318.7109 Q86.144,318.7109 85.4565,319.7891 Q84.769,320.8516 84.769,322.9453 Q84.769,325.0391 85.4565,326.1172 Q86.144,327.1797 87.4878,327.1797 Q88.1128,327.1797 88.7065,326.9141 Q89.3003,326.6328 89.9253,326.0547 L89.9253,328.7734 Z " fill="#000000"/><text fill="#000000" font-family="sans-serif" font-size="12" font-style="italic" lengthAdjust="spacing" textLength="71.9883" x="149.1187" y="319.1387">&#171;boundary&#187;</text><text fill="#000000" font-family="sans-serif" font-size="14" lengthAdjust="spacing" textLength="155.3125" x="107.4565" y="334.9639">TelaAtualizacaoStatus</text><line style="stroke:#181818;stroke-width:0.5;" x1="8" x2="329.7256" y1="343.2656" y2="343.2656"/><line style="stroke:#181818;stroke-width:0.5;" x1="8" x2="329.7256" y1="351.2656" y2="351.2656"/><text fill="#000000" font-family="sans-serif" font-size="14" lengthAdjust="spacing" textLength="311.7256" x="13" y="368.2607">+alterar(chamadoId: int, novoStatus: string)</text></g><!--class ControleAtualizacaoStatus--><g class="entity" data-entity="ControleAtualizacaoStatus" data-source-line="10" data-uid="ent0004" id="entity_ControleAtualizacaoStatus"><rect fill="#F1F1F1" height="72.5625" rx="2.5" ry="2.5" style="stroke:#181818;stroke-width:0.5;" width="338.0469" x="446" y="303"/><ellipse cx="518.1704" cy="323.1328" fill="#ADD1B2" rx="11" ry="11" style="stroke:#181818;stroke-width:1;"/><path d="M521.1392,328.7734 Q520.561,329.0703 519.9204,329.2109 Q519.2798,329.3672 518.5767,329.3672 Q516.0767,329.3672 514.7485,327.7266 Q513.436,326.0703 513.436,322.9453 Q513.436,319.8203 514.7485,318.1641 Q516.0767,316.5078 518.5767,316.5078 Q519.2798,316.5078 519.9204,316.6641 Q520.5767,316.8203 521.1392,317.1172 L521.1392,319.8359 Q520.5142,319.2578 519.9204,318.9922 Q519.3267,318.7109 518.7017,318.7109 Q517.3579,318.7109 516.6704,319.7891 Q515.9829,320.8516 515.9829,322.9453 Q515.9829,325.0391 516.6704,326.1172 Q517.3579,327.1797 518.7017,327.1797 Q519.3267,327.1797 519.9204,326.9141 Q520.5142,326.6328 521.1392,326.0547 L521.1392,328.7734 Z " fill="#000000"/><text fill="#000000" font-family="sans-serif" font-size="12" font-style="italic" lengthAdjust="spacing" textLength="56.6719" x="602.9375" y="319.1387">&#171;control&#187;</text><text fill="#000000" font-family="sans-serif" font-size="14" lengthAdjust="spacing" textLength="185.2061" x="538.6704" y="334.9639">ControleAtualizacaoStatus</text><line style="stroke:#181818;stroke-width:0.5;" x1="447" x2="783.0469" y1="343.2656" y2="343.2656"/><line style="stroke:#181818;stroke-width:0.5;" x1="447" x2="783.0469" y1="351.2656" y2="351.2656"/><text fill="#000000" font-family="sans-serif" font-size="14" lengthAdjust="spacing" textLength="326.0469" x="452" y="368.2607">+atualizar(chamadoId: int, novoStatus: string)</text></g><!--class Chamado--><g class="entity" data-entity="Chamado" data-source-line="14" data-uid="ent0005" id="entity_Chamado"><rect fill="#F1F1F1" height="105.1563" rx="2.5" ry="2.5" style="stroke:#181818;stroke-width:0.5;" width="268.5049" x="34.5" y="163"/><ellipse cx="131.0542" cy="183.1328" fill="#ADD1B2" rx="11" ry="11" style="stroke:#181818;stroke-width:1;"/><path d="M134.0229,188.7734 Q133.4448,189.0703 132.8042,189.2109 Q132.1636,189.3672 131.4604,189.3672 Q128.9604,189.3672 127.6323,187.7266 Q126.3198,186.0703 126.3198,182.9453 Q126.3198,179.8203 127.6323,178.1641 Q128.9604,176.5078 131.4604,176.5078 Q132.1636,176.5078 132.8042,176.6641 Q133.4604,176.8203 134.0229,177.1172 L134.0229,179.8359 Q133.3979,179.2578 132.8042,178.9922 Q132.2104,178.7109 131.5854,178.7109 Q130.2417,178.7109 129.5542,179.7891 Q128.8667,180.8516 128.8667,182.9453 Q128.8667,185.0391 129.5542,186.1172 Q130.2417,187.1797 131.5854,187.1797 Q132.2104,187.1797 132.8042,186.9141 Q133.3979,186.6328 134.0229,186.0547 L134.0229,188.7734 Z " fill="#000000"/><text fill="#000000" font-family="sans-serif" font-size="12" font-style="italic" lengthAdjust="spacing" textLength="49.6465" x="160.1792" y="179.1387">&#171;entity&#187;</text><text fill="#000000" font-family="sans-serif" font-size="14" lengthAdjust="spacing" textLength="66.8965" x="151.5542" y="194.9639">Chamado</text><line style="stroke:#181818;stroke-width:0.5;" x1="35.5" x2="302.0049" y1="203.2656" y2="203.2656"/><text fill="#000000" font-family="sans-serif" font-size="14" lengthAdjust="spacing" textLength="45.2471" x="40.5" y="220.2607">-id: int</text><text fill="#000000" font-family="sans-serif" font-size="14" lengthAdjust="spacing" textLength="97.4258" x="40.5" y="236.5576">-status: string</text><line style="stroke:#181818;stroke-width:0.5;" x1="35.5" x2="302.0049" y1="243.8594" y2="243.8594"/><text fill="#000000" font-family="sans-serif" font-size="14" lengthAdjust="spacing" textLength="256.5049" x="40.5" y="260.8545">+atualizarStatus(novoStatus: string)</text></g><!--class Historico--><g class="entity" data-entity="Historico" data-source-line="20" data-uid="ent0006" id="entity_Historico"><rect fill="#F1F1F1" height="121.4531" rx="2.5" ry="2.5" style="stroke:#181818;stroke-width:0.5;" width="126.6455" x="105.5" y="7"/><ellipse cx="135.3373" cy="27.1328" fill="#ADD1B2" rx="11" ry="11" style="stroke:#181818;stroke-width:1;"/><path d="M138.306,32.7734 Q137.7279,33.0703 137.0873,33.2109 Q136.4466,33.3672 135.7435,33.3672 Q133.2435,33.3672 131.9154,31.7266 Q130.6029,30.0703 130.6029,26.9453 Q130.6029,23.8203 131.9154,22.1641 Q133.2435,20.5078 135.7435,20.5078 Q136.4466,20.5078 137.0873,20.6641 Q137.7435,20.8203 138.306,21.1172 L138.306,23.8359 Q137.681,23.2578 137.0873,22.9922 Q136.4935,22.7109 135.8685,22.7109 Q134.5248,22.7109 133.8373,23.7891 Q133.1498,24.8516 133.1498,26.9453 Q133.1498,29.0391 133.8373,30.1172 Q134.5248,31.1797 135.8685,31.1797 Q136.4935,31.1797 137.0873,30.9141 Q137.681,30.6328 138.306,30.0547 L138.306,32.7734 Z " fill="#000000"/><text fill="#000000" font-family="sans-serif" font-size="12" font-style="italic" lengthAdjust="spacing" textLength="49.6465" x="158.6481" y="23.1387">&#171;entity&#187;</text><text fill="#000000" font-family="sans-serif" font-size="14" lengthAdjust="spacing" textLength="61.6738" x="152.6344" y="38.9639">Historico</text><line style="stroke:#181818;stroke-width:0.5;" x1="106.5" x2="231.1455" y1="47.2656" y2="47.2656"/><text fill="#000000" font-family="sans-serif" font-size="14" lengthAdjust="spacing" textLength="45.2471" x="111.5" y="64.2607">-id: int</text><text fill="#000000" font-family="sans-serif" font-size="14" lengthAdjust="spacing" textLength="108.9512" x="111.5" y="80.5576">-data: datetime</text><text fill="#000000" font-family="sans-serif" font-size="14" lengthAdjust="spacing" textLength="87.8281" x="111.5" y="96.8545">-acao: string</text><text fill="#000000" font-family="sans-serif" font-size="14" lengthAdjust="spacing" textLength="114.6455" x="111.5" y="113.1514">-detalhes: string</text><line style="stroke:#181818;stroke-width:0.5;" x1="106.5" x2="231.1455" y1="120.4531" y2="120.4531"/></g><!--class IChamadoRepository--><g class="entity" data-entity="IChamadoRepository" data-source-line="27" data-uid="ent0007" id="entity_IChamadoRepository"><rect fill="#F1F1F1" height="80.5938" rx="2.5" ry="2.5" style="stroke:#181818;stroke-width:0.5;" width="208.3965" x="1164" y="299"/><ellipse cx="1192.6345" cy="315" fill="#B4A7E5" rx="11" ry="11" style="stroke:#181818;stroke-width:1;"/><path d="M1188.5563,310.7656 L1188.5563,308.6094 L1195.947,308.6094 L1195.947,310.7656 L1193.4782,310.7656 L1193.4782,318.8438 L1195.947,318.8438 L1195.947,321 L1188.5563,321 L1188.5563,318.8438 L1191.0251,318.8438 L1191.0251,310.7656 L1188.5563,310.7656 Z " fill="#000000"/><text fill="#000000" font-family="sans-serif" font-size="14" font-style="italic" lengthAdjust="spacing" textLength="146.0977" x="1209.6644" y="319.8467">IChamadoRepository</text><line style="stroke:#181818;stroke-width:0.5;" x1="1165" x2="1371.3965" y1="331" y2="331"/><line style="stroke:#181818;stroke-width:0.5;" x1="1165" x2="1371.3965" y1="339" y2="339"/><text fill="#000000" font-family="sans-serif" font-size="14" lengthAdjust="spacing" textLength="196.3965" x="1170" y="355.9951">+findById(id: int): Chamado</text><text fill="#000000" font-family="sans-serif" font-size="14" lengthAdjust="spacing" textLength="139.1865" x="1170" y="372.292">+save(c: Chamado)</text></g><!--class IHistoricoRepository--><g class="entity" data-entity="IHistoricoRepository" data-source-line="32" data-uid="ent0008" id="entity_IHistoricoRepository"><rect fill="#F1F1F1" height="64.2969" rx="2.5" ry="2.5" style="stroke:#181818;stroke-width:0.5;" width="410.0977" x="1063" y="415.5"/><ellipse cx="1193.3613" cy="431.5" fill="#B4A7E5" rx="11" ry="11" style="stroke:#181818;stroke-width:1;"/><path d="M1189.2832,427.2656 L1189.2832,425.1094 L1196.6738,425.1094 L1196.6738,427.2656 L1194.2051,427.2656 L1194.2051,435.3438 L1196.6738,435.3438 L1196.6738,437.5 L1189.2832,437.5 L1189.2832,435.3438 L1191.752,435.3438 L1191.752,427.2656 L1189.2832,427.2656 Z " fill="#000000"/><text fill="#000000" font-family="sans-serif" font-size="14" font-style="italic" lengthAdjust="spacing" textLength="140.875" x="1213.8613" y="436.3467">IHistoricoRepository</text><line style="stroke:#181818;stroke-width:0.5;" x1="1064" x2="1472.0977" y1="447.5" y2="447.5"/><line style="stroke:#181818;stroke-width:0.5;" x1="1064" x2="1472.0977" y1="455.5" y2="455.5"/><text fill="#000000" font-family="sans-serif" font-size="14" lengthAdjust="spacing" textLength="398.0977" x="1069" y="472.4951">+registrar(chamadoId: int, acao: string, detalhes: string)</text></g><!--link ControleAtualizacaoStatus to IAtualizarStatusChamado--><g class="link" data-entity-1="ControleAtualizacaoStatus" data-entity-2="IAtualizarStatusChamado" data-source-line="36" data-uid="lnk9" id="link_ControleAtualizacaoStatus_IAtualizarStatusChamado"><path codeLine="36" d="M784.07,313.68 C903.69,295.31 1042.8687,273.9332 1144.8687,258.2632" fill="none" id="ControleAtualizacaoStatus-to-IAtualizarStatusChamado" style="stroke:#181818;stroke-width:1;stroke-dasharray:7,7;"/><polygon fill="none" points="1162.66,255.53,1143.9576,252.3328,1145.7798,264.1937,1162.66,255.53" style="stroke:#181818;stroke-width:1;"/></g><!--link TelaAtualizacaoStatus to ControleAtualizacaoStatus--><g class="link" data-entity-1="TelaAtualizacaoStatus" data-entity-2="ControleAtualizacaoStatus" data-source-line="37" data-uid="lnk10" id="link_TelaAtualizacaoStatus_ControleAtualizacaoStatus"><path codeLine="37" d="M331.24,339.5 C368.45,339.5 402.12,339.5 439.63,339.5" fill="none" id="TelaAtualizacaoStatus-to-ControleAtualizacaoStatus" style="stroke:#181818;stroke-width:1;"/><polygon fill="#181818" points="445.63,339.5,436.63,335.5,440.63,339.5,436.63,343.5,445.63,339.5" style="stroke:#181818;stroke-width:1;"/><text fill="#000000" font-family="sans-serif" font-size="13" lengthAdjust="spacing" textLength="53.4727" x="362" y="335.5669">alterar()</text></g><!--link ControleAtualizacaoStatus to IChamadoRepository--><g class="link" data-entity-1="ControleAtualizacaoStatus" data-entity-2="IChamadoRepository" data-source-line="38" data-uid="lnk11" id="link_ControleAtualizacaoStatus_IChamadoRepository"><path codeLine="38" d="M784.07,339.5 C904.06,339.5 1055.65,339.5 1157.62,339.5" fill="none" id="ControleAtualizacaoStatus-to-IChamadoRepository" style="stroke:#181818;stroke-width:1;stroke-dasharray:7,7;"/><polygon fill="#181818" points="1163.62,339.5,1154.62,335.5,1158.62,339.5,1154.62,343.5,1163.62,339.5" style="stroke:#181818;stroke-width:1;"/><text fill="#000000" font-family="sans-serif" font-size="13" lengthAdjust="spacing" textLength="108.4751" x="869.5" y="335.5669">findById()/save()</text></g><!--link ControleAtualizacaoStatus to IHistoricoRepository--><g class="link" data-entity-1="ControleAtualizacaoStatus" data-entity-2="IHistoricoRepository" data-source-line="39" data-uid="lnk12" id="link_ControleAtualizacaoStatus_IHistoricoRepository"><path codeLine="39" d="M784.07,367.38 C872.7,382.09 975.9209,399.2078 1068.0009,414.4878" fill="none" id="ControleAtualizacaoStatus-to-IHistoricoRepository" style="stroke:#181818;stroke-width:1;stroke-dasharray:7,7;"/><polygon fill="#181818" points="1073.92,415.47,1065.6962,410.0506,1068.9875,414.6515,1064.3866,417.9427,1073.92,415.47" style="stroke:#181818;stroke-width:1;"/><text fill="#000000" font-family="sans-serif" font-size="13" lengthAdjust="spacing" textLength="217.5723" x="815" y="369.5669">registrar("Atualiza&#231;&#227;o de status")</text></g><!--SRC=[bP91Ri8m44NtESMegqG5shM58b4spRRq0eCpWDLW8tk212sdwQ87uM8rE4a3150taU8P__VdUzo7qYkqk0HPe7CZPgkc9LCcZPweBS5pLD2CWGrODLymvCgIP6Lq52dDP6Se2R8HbrYeBTe98vTklC0bvYQAZgBmJWNM7H9Dw87XS6fAdQFTf2byGWJm25XuIRIn309PBi1JUg3Dkhecm7cBUfv0jAlrnqQpDGLrCMIejH2rrVz2GhUN9CsA6zDzK44W_BWJWJDaK8zlWrwLOsELl8lAaL4SliHgIU7iC7iRxhk8iLXGozBkvEcgkTvePPpou4qTr4pf_6MJvN45JKIJmR7kS4snR0wJS-5cZajfItDVx7hejl_UXVV0kFxSWy5NUdKPkxUmtqzlx8zeDZAvYKsxSXH_4IPFnxJkYdHb9bfnFTJtzZ_xR-FpgVRj8Va5]--></g></svg>