<svg xmlns="http://www.w3.org/2000/svg" xmlns:xlink="http://www.w3.org/1999/xlink" contentStyleType="text/css" data-diagram-type="CLASS" height="301px" preserveAspectRatio="none" style="width:1075px;height:301px;background:#FFFFFF;" version="1.1" viewBox="0 0 1075 301" width="1075px" zoomAndPan="magnify"><defs/><g><!--class IConsultarHistoricoSistema--><g class="entity" data-entity="IConsultarHistoricoSistema" data-source-line="4" data-uid="ent0002" id="entity_IConsultarHistoricoSistema"><rect fill="#F1F1F1" height="48" rx="2.5" ry="2.5" style="stroke:#181818;stroke-width:0.5;" width="221.2871" x="803" y="147"/><ellipse cx="818" cy="163" fill="#B4A7E5" rx="11" ry="11" style="stroke:#181818;stroke-width:1;"/><path d="M813.9219,158.7656 L813.9219,156.6094 L821.3125,156.6094 L821.3125,158.7656 L818.8438,158.7656 L818.8438,166.8438 L821.3125,166.8438 L821.3125,169 L813.9219,169 L813.9219,166.8438 L816.3906,166.8438 L816.3906,158.7656 L813.9219,158.7656 Z " fill="#000000"/><text fill="#000000" font-family="sans-serif" font-size="14" font-style="italic" lengthAdjust="spacing" textLength="189.2871" x="832" y="167.8467">IConsultarHistoricoSistema</text><line style="stroke:#181818;stroke-width:0.5;" x1="804" x2="1023.2871" y1="179" y2="179"/><line style="stroke:#181818;stroke-width:0.5;" x1="804" x2="1023.2871" y1="187" y2="187"/></g><!--class TelaHistoricoSistema--><g class="entity" data-entity="TelaHistoricoSistema" data-source-line="6" data-uid="ent0003" id="entity_TelaHistoricoSistema"><rect fill="#F1F1F1" height="72.5625" rx="2.5" ry="2.5" style="stroke:#181818;stroke-width:0.5;" width="179.6973" x="7" y="180.5"/><ellipse cx="22" cy="200.6328" fill="#ADD1B2" rx="11" ry="11" style="stroke:#181818;stroke-width:1;"/><path d="M24.9688,206.2734 Q24.3906,206.5703 23.75,206.7109 Q23.1094,206.8672 22.4063,206.8672 Q19.9063,206.8672 18.5781,205.2266 Q17.2656,203.5703 17.2656,200.4453 Q17.2656,197.3203 18.5781,195.6641 Q19.9063,194.0078 22.4063,194.0078 Q23.1094,194.0078 23.75,194.1641 Q24.4063,194.3203 24.9688,194.6172 L24.9688,197.3359 Q24.3438,196.7578 23.75,196.4922 Q23.1563,196.2109 22.5313,196.2109 Q21.1875,196.2109 20.5,197.2891 Q19.8125,198.3516 19.8125,200.4453 Q19.8125,202.5391 20.5,203.6172 Q21.1875,204.6797 22.5313,204.6797 Q23.1563,204.6797 23.75,204.4141 Q24.3438,204.1328 24.9688,203.5547 L24.9688,206.2734 Z " fill="#000000"/><text fill="#000000" font-family="sans-serif" font-size="12" font-style="italic" lengthAdjust="spacing" textLength="71.9883" x="73.8545" y="196.6387">&#171;boundary&#187;</text><text fill="#000000" font-family="sans-serif" font-size="14" lengthAdjust="spacing" textLength="147.6973" x="36" y="212.4639">TelaHistoricoSistema</text><line style="stroke:#181818;stroke-width:0.5;" x1="8" x2="185.6973" y1="220.7656" y2="220.7656"/><line style="stroke:#181818;stroke-width:0.5;" x1="8" x2="185.6973" y1="228.7656" y2="228.7656"/><text fill="#000000" font-family="sans-serif" font-size="14" lengthAdjust="spacing" textLength="120.1895" x="13" y="245.7607">+consultar(filtro)</text></g><!--class ControleHistoricoSistema--><g class="entity" data-entity="ControleHistoricoSistema" data-source-line="10" data-uid="ent0004" id="entity_ControleHistoricoSistema"><rect fill="#F1F1F1" height="72.5625" rx="2.5" ry="2.5" style="stroke:#181818;stroke-width:0.5;" width="294.3516" x="319" y="180.5"/><ellipse cx="373.1304" cy="200.6328" fill="#ADD1B2" rx="11" ry="11" style="stroke:#181818;stroke-width:1;"/><path d="M376.0991,206.2734 Q375.521,206.5703 374.8804,206.7109 Q374.2397,206.8672 373.5366,206.8672 Q371.0366,206.8672 369.7085,205.2266 Q368.396,203.5703 368.396,200.4453 Q368.396,197.3203 369.7085,195.6641 Q371.0366,194.0078 373.5366,194.0078 Q374.2397,194.0078 374.8804,194.1641 Q375.5366,194.3203 376.0991,194.6172 L376.0991,197.3359 Q375.4741,196.7578 374.8804,196.4922 Q374.2866,196.2109 373.6616,196.2109 Q372.3179,196.2109 371.6304,197.2891 Q370.9429,198.3516 370.9429,200.4453 Q370.9429,202.5391 371.6304,203.6172 Q372.3179,204.6797 373.6616,204.6797 Q374.2866,204.6797 374.8804,204.4141 Q375.4741,204.1328 376.0991,203.5547 L376.0991,206.2734 Z " fill="#000000"/><text fill="#000000" font-family="sans-serif" font-size="12" font-style="italic" lengthAdjust="spacing" textLength="56.6719" x="454.0898" y="196.6387">&#171;control&#187;</text><text fill="#000000" font-family="sans-serif" font-size="14" lengthAdjust="spacing" textLength="177.5908" x="393.6304" y="212.4639">ControleHistoricoSistema</text><line style="stroke:#181818;stroke-width:0.5;" x1="320" x2="612.3516" y1="220.7656" y2="220.7656"/><line style="stroke:#181818;stroke-width:0.5;" x1="320" x2="612.3516" y1="228.7656" y2="228.7656"/><text fill="#000000" font-family="sans-serif" font-size="14" lengthAdjust="spacing" textLength="282.3516" x="325" y="245.7607">+consultar(filtro): List&lt;EventoSistema&gt;</text></g><!--class EventoSistema--><g class="entity" data-entity="EventoSistema" data-source-line="14" data-uid="ent0005" id="entity_EventoSistema"><rect fill="#F1F1F1" height="137.75" rx="2.5" ry="2.5" style="stroke:#181818;stroke-width:0.5;" width="137.0615" x="28.5" y="7"/><ellipse cx="43.5" cy="27.1328" fill="#ADD1B2" rx="11" ry="11" style="stroke:#181818;stroke-width:1;"/><path d="M46.4688,32.7734 Q45.8906,33.0703 45.25,33.2109 Q44.6094,33.3672 43.9063,33.3672 Q41.4063,33.3672 40.0781,31.7266 Q38.7656,30.0703 38.7656,26.9453 Q38.7656,23.8203 40.0781,22.1641 Q41.4063,20.5078 43.9063,20.5078 Q44.6094,20.5078 45.25,20.6641 Q45.9063,20.8203 46.4688,21.1172 L46.4688,23.8359 Q45.8438,23.2578 45.25,22.9922 Q44.6563,22.7109 44.0313,22.7109 Q42.6875,22.7109 42,23.7891 Q41.3125,24.8516 41.3125,26.9453 Q41.3125,29.0391 42,30.1172 Q42.6875,31.1797 44.0313,31.1797 Q44.6563,31.1797 45.25,30.9141 Q45.8438,30.6328 46.4688,30.0547 L46.4688,32.7734 Z " fill="#000000"/><text fill="#000000" font-family="sans-serif" font-size="12" font-style="italic" lengthAdjust="spacing" textLength="49.6465" x="85.2075" y="23.1387">&#171;entity&#187;</text><text fill="#000000" font-family="sans-serif" font-size="14" lengthAdjust="spacing" textLength="105.0615" x="57.5" y="38.9639">EventoSistema</text><line style="stroke:#181818;stroke-width:0.5;" x1="29.5" x2="164.5615" y1="47.2656" y2="47.2656"/><text fill="#000000" font-family="sans-serif" font-size="14" lengthAdjust="spacing" textLength="40.7969" x="34.5" y="64.2607">-id:int</text><text fill="#000000" font-family="sans-serif" font-size="14" lengthAdjust="spacing" textLength="104.501" x="34.5" y="80.5576">-data:datetime</text><text fill="#000000" font-family="sans-serif" font-size="14" lengthAdjust="spacing" textLength="76.7881" x="34.5" y="96.8545">-tipo:string</text><text fill="#000000" font-family="sans-serif" font-size="14" lengthAdjust="spacing" textLength="92.8662" x="34.5" y="113.1514">-usuarioId:int</text><text fill="#000000" font-family="sans-serif" font-size="14" lengthAdjust="spacing" textLength="116.9355" x="34.5" y="129.4482">-descricao:string</text><line style="stroke:#181818;stroke-width:0.5;" x1="29.5" x2="164.5615" y1="136.75" y2="136.75"/></g><!--class IEventoSistemaRepository--><g class="entity" data-entity="IEventoSistemaRepository" data-source-line="22" data-uid="ent0006" id="entity_IEventoSistemaRepository"><rect fill="#F1F1F1" height="64.2969" rx="2.5" ry="2.5" style="stroke:#181818;stroke-width:0.5;" width="309.4453" x="759" y="230"/><ellipse cx="817.3413" cy="246" fill="#B4A7E5" rx="11" ry="11" style="stroke:#181818;stroke-width:1;"/><path d="M813.2632,241.7656 L813.2632,239.6094 L820.6538,239.6094 L820.6538,241.7656 L818.1851,241.7656 L818.1851,249.8438 L820.6538,249.8438 L820.6538,252 L813.2632,252 L813.2632,249.8438 L815.7319,249.8438 L815.7319,241.7656 L813.2632,241.7656 Z " fill="#000000"/><text fill="#000000" font-family="sans-serif" font-size="14" font-style="italic" lengthAdjust="spacing" textLength="184.2627" x="837.8413" y="250.8467">IEventoSistemaRepository</text><line style="stroke:#181818;stroke-width:0.5;" x1="760" x2="1067.4453" y1="262" y2="262"/><line style="stroke:#181818;stroke-width:0.5;" x1="760" x2="1067.4453" y1="270" y2="270"/><text fill="#000000" font-family="sans-serif" font-size="14" lengthAdjust="spacing" textLength="297.4453" x="765" y="286.9951">+findByFiltro(filtro): List&lt;EventoSistema&gt;</text></g><!--link ControleHistoricoSistema to IConsultarHistoricoSistema--><g class="link" data-entity-1="ControleHistoricoSistema" data-entity-2="IConsultarHistoricoSistema" data-source-line="26" data-uid="lnk7" id="link_ControleHistoricoSistema_IConsultarHistoricoSistema"><path codeLine="26" d="M613.18,201.91 C674.95,195.53 727.7654,190.0806 784.9454,184.1706" fill="none" id="ControleHistoricoSistema-to-IConsultarHistoricoSistema" style="stroke:#181818;stroke-width:1;stroke-dasharray:7,7;"/><polygon fill="none" points="802.85,182.32,784.3285,178.2024,785.5622,190.1388,802.85,182.32" style="stroke:#181818;stroke-width:1;"/></g><!--link TelaHistoricoSistema to ControleHistoricoSistema--><g class="link" data-entity-1="TelaHistoricoSistema" data-entity-2="ControleHistoricoSistema" data-source-line="27" data-uid="lnk8" id="link_TelaHistoricoSistema_ControleHistoricoSistema"><path codeLine="27" d="M187.31,217 C226.88,217 268.47,217 312.98,217" fill="none" id="TelaHistoricoSistema-to-ControleHistoricoSistema" style="stroke:#181818;stroke-width:1;"/><polygon fill="#181818" points="318.98,217,309.98,213,313.98,217,309.98,221,318.98,217" style="stroke:#181818;stroke-width:1;"/><text fill="#000000" font-family="sans-serif" font-size="13" lengthAdjust="spacing" textLength="70.5161" x="218" y="213.0669">consultar()</text></g><!--link ControleHistoricoSistema to IEventoSistemaRepository--><g class="link" data-entity-1="ControleHistoricoSistema" data-entity-2="IEventoSistemaRepository" data-source-line="28" data-uid="lnk9" id="link_ControleHistoricoSistema_IEventoSistemaRepository"><path codeLine="28" d="M613.18,231.77 C659.86,236.48 705.6804,241.1066 752.8704,245.8766" fill="none" id="ControleHistoricoSistema-to-IEventoSistemaRepository" style="stroke:#181818;stroke-width:1;stroke-dasharray:7,7;"/><polygon fill="#181818" points="758.84,246.48,750.2879,241.5952,753.8653,245.9772,749.4834,249.5546,758.84,246.48" style="stroke:#181818;stroke-width:1;"/><text fill="#000000" font-family="sans-serif" font-size="13" lengthAdjust="spacing" textLength="84.5317" x="644" y="231.0669">findByFiltro()</text></g><!--SRC=[XP71IiGm48RlUOevMgIBvr02Aee5Jwula4sdwx1fKfAfK7NVtH2fjBAjbp2PcNmp_vzu8jVhe3imLiTuonpeC33MnhizVI3S28ij0ti8T7nZQ2YWOV9E27ACeTK6eRxtBWwMTNYYo3wGyViKOAU5o5nuHQl_rg2g3dvmZGwZKl090k0Qp4IwQiboy0M8ymH9KrB6uWMG-IbjS2Gyf-xguHqTJm_L3Bue96Aw4UV54gy4QcJIcyD6ivRfGAOESuQfzp8cwzmntuSuw42-dht1QDB6-hVjlF1lCVm5UnyfAHmdCIsvvcvyp4B-rxDgqsxtfRR-wk8dbQLQDrxEV2ws1gjrZN8fh_W6]--></g></svg>