<svg xmlns="http://www.w3.org/2000/svg" xmlns:xlink="http://www.w3.org/1999/xlink" contentStyleType="text/css" data-diagram-type="CLASS" height="330px" preserveAspectRatio="none" style="width:1467px;height:330px;background:#FFFFFF;" version="1.1" viewBox="0 0 1467 330" width="1467px" zoomAndPan="magnify"><defs/><g><!--class IConsultarChamados--><g class="entity" data-entity="IConsultarChamados" data-source-line="4" data-uid="ent0002" id="entity_IConsultarChamados"><rect fill="#F1F1F1" height="48" rx="2.5" ry="2.5" style="stroke:#181818;stroke-width:0.5;" width="177.4141" x="1198" y="159"/><ellipse cx="1213" cy="175" fill="#B4A7E5" rx="11" ry="11" style="stroke:#181818;stroke-width:1;"/><path d="M1208.9219,170.7656 L1208.9219,168.6094 L1216.3125,168.6094 L1216.3125,170.7656 L1213.8438,170.7656 L1213.8438,178.8438 L1216.3125,178.8438 L1216.3125,181 L1208.9219,181 L1208.9219,178.8438 L1211.3906,178.8438 L1211.3906,170.7656 L1208.9219,170.7656 Z " fill="#000000"/><text fill="#000000" font-family="sans-serif" font-size="14" font-style="italic" lengthAdjust="spacing" textLength="145.4141" x="1227" y="179.8467">IConsultarChamados</text><line style="stroke:#181818;stroke-width:0.5;" x1="1199" x2="1374.4141" y1="191" y2="191"/><line style="stroke:#181818;stroke-width:0.5;" x1="1199" x2="1374.4141" y1="199" y2="199"/></g><!--class TelaConsultaChamado--><g class="entity" data-entity="TelaConsultaChamado" data-source-line="6" data-uid="ent0003" id="entity_TelaConsultaChamado"><rect fill="#F1F1F1" height="105.1563" rx="2.5" ry="2.5" style="stroke:#181818;stroke-width:0.5;" width="259.7822" x="7" y="180.5"/><ellipse cx="53.7065" cy="200.6328" fill="#ADD1B2" rx="11" ry="11" style="stroke:#181818;stroke-width:1;"/><path d="M56.6753,206.2734 Q56.0972,206.5703 55.4565,206.7109 Q54.8159,206.8672 54.1128,206.8672 Q51.6128,206.8672 50.2847,205.2266 Q48.9722,203.5703 48.9722,200.4453 Q48.9722,197.3203 50.2847,195.6641 Q51.6128,194.0078 54.1128,194.0078 Q54.8159,194.0078 55.4565,194.1641 Q56.1128,194.3203 56.6753,194.6172 L56.6753,197.3359 Q56.0503,196.7578 55.4565,196.4922 Q54.8628,196.2109 54.2378,196.2109 Q52.894,196.2109 52.2065,197.2891 Q51.519,198.3516 51.519,200.4453 Q51.519,202.5391 52.2065,203.6172 Q52.894,204.6797 54.2378,204.6797 Q54.8628,204.6797 55.4565,204.4141 Q56.0503,204.1328 56.6753,203.5547 L56.6753,206.2734 Z " fill="#000000"/><text fill="#000000" font-family="sans-serif" font-size="12" font-style="italic" lengthAdjust="spacing" textLength="71.9883" x="117.147" y="196.6387">&#171;boundary&#187;</text><text fill="#000000" font-family="sans-serif" font-size="14" lengthAdjust="spacing" textLength="157.8691" x="74.2065" y="212.4639">TelaConsultaChamado</text><line style="stroke:#181818;stroke-width:0.5;" x1="8" x2="265.7822" y1="220.7656" y2="220.7656"/><line style="stroke:#181818;stroke-width:0.5;" x1="8" x2="265.7822" y1="228.7656" y2="228.7656"/><text fill="#000000" font-family="sans-serif" font-size="14" lengthAdjust="spacing" textLength="97.6172" x="13" y="245.7607">+exibirFiltro()</text><text fill="#000000" font-family="sans-serif" font-size="14" lengthAdjust="spacing" textLength="120.1895" x="13" y="262.0576">+consultar(filtro)</text><text fill="#000000" font-family="sans-serif" font-size="14" lengthAdjust="spacing" textLength="247.7822" x="13" y="278.3545">+apresentar(lista:List&lt;Chamado&gt;)</text></g><!--class ControleConsultaChamado--><g class="entity" data-entity="ControleConsultaChamado" data-source-line="12" data-uid="ent0004" id="entity_ControleConsultaChamado"><rect fill="#F1F1F1" height="72.5625" rx="2.5" ry="2.5" style="stroke:#181818;stroke-width:0.5;" width="431.542" x="429" y="196.5"/><ellipse cx="546.6396" cy="216.6328" fill="#ADD1B2" rx="11" ry="11" style="stroke:#181818;stroke-width:1;"/><path d="M549.6084,222.2734 Q549.0303,222.5703 548.3896,222.7109 Q547.749,222.8672 547.0459,222.8672 Q544.5459,222.8672 543.2178,221.2266 Q541.9053,219.5703 541.9053,216.4453 Q541.9053,213.3203 543.2178,211.6641 Q544.5459,210.0078 547.0459,210.0078 Q547.749,210.0078 548.3896,210.1641 Q549.0459,210.3203 549.6084,210.6172 L549.6084,213.3359 Q548.9834,212.7578 548.3896,212.4922 Q547.7959,212.2109 547.1709,212.2109 Q545.8271,212.2109 545.1396,213.2891 Q544.4521,214.3516 544.4521,216.4453 Q544.4521,218.5391 545.1396,219.6172 Q545.8271,220.6797 547.1709,220.6797 Q547.7959,220.6797 548.3896,220.4141 Q548.9834,220.1328 549.6084,219.5547 L549.6084,222.2734 Z " fill="#000000"/><text fill="#000000" font-family="sans-serif" font-size="12" font-style="italic" lengthAdjust="spacing" textLength="56.6719" x="632.6851" y="212.6387">&#171;control&#187;</text><text fill="#000000" font-family="sans-serif" font-size="14" lengthAdjust="spacing" textLength="187.7627" x="567.1396" y="228.4639">ControleConsultaChamado</text><line style="stroke:#181818;stroke-width:0.5;" x1="430" x2="859.542" y1="236.7656" y2="236.7656"/><line style="stroke:#181818;stroke-width:0.5;" x1="430" x2="859.542" y1="244.7656" y2="244.7656"/><text fill="#000000" font-family="sans-serif" font-size="14" lengthAdjust="spacing" textLength="419.542" x="435" y="261.7607">+consultarChamados(filtro, usuarioId: int): List&lt;Chamado&gt;</text></g><!--class Chamado--><g class="entity" data-entity="Chamado" data-source-line="16" data-uid="ent0005" id="entity_Chamado"><rect fill="#F1F1F1" height="137.75" rx="2.5" ry="2.5" style="stroke:#181818;stroke-width:0.5;" width="178.0313" x="48" y="7"/><ellipse cx="99.3174" cy="27.1328" fill="#ADD1B2" rx="11" ry="11" style="stroke:#181818;stroke-width:1;"/><path d="M102.2861,32.7734 Q101.708,33.0703 101.0674,33.2109 Q100.4268,33.3672 99.7236,33.3672 Q97.2236,33.3672 95.8955,31.7266 Q94.583,30.0703 94.583,26.9453 Q94.583,23.8203 95.8955,22.1641 Q97.2236,20.5078 99.7236,20.5078 Q100.4268,20.5078 101.0674,20.6641 Q101.7236,20.8203 102.2861,21.1172 L102.2861,23.8359 Q101.6611,23.2578 101.0674,22.9922 Q100.4736,22.7109 99.8486,22.7109 Q98.5049,22.7109 97.8174,23.7891 Q97.1299,24.8516 97.1299,26.9453 Q97.1299,29.0391 97.8174,30.1172 Q98.5049,31.1797 99.8486,31.1797 Q100.4736,31.1797 101.0674,30.9141 Q101.6611,30.6328 102.2861,30.0547 L102.2861,32.7734 Z " fill="#000000"/><text fill="#000000" font-family="sans-serif" font-size="12" font-style="italic" lengthAdjust="spacing" textLength="49.6465" x="128.4424" y="23.1387">&#171;entity&#187;</text><text fill="#000000" font-family="sans-serif" font-size="14" lengthAdjust="spacing" textLength="66.8965" x="119.8174" y="38.9639">Chamado</text><line style="stroke:#181818;stroke-width:0.5;" x1="49" x2="225.0313" y1="47.2656" y2="47.2656"/><text fill="#000000" font-family="sans-serif" font-size="14" lengthAdjust="spacing" textLength="40.7969" x="54" y="64.2607">-id:int</text><text fill="#000000" font-family="sans-serif" font-size="14" lengthAdjust="spacing" textLength="86.1533" x="54" y="80.5576">-titulo:string</text><text fill="#000000" font-family="sans-serif" font-size="14" lengthAdjust="spacing" textLength="92.9756" x="54" y="96.8545">-status:string</text><text fill="#000000" font-family="sans-serif" font-size="14" lengthAdjust="spacing" textLength="121.666" x="54" y="113.1514">-prioridade:string</text><text fill="#000000" font-family="sans-serif" font-size="14" lengthAdjust="spacing" textLength="166.0313" x="54" y="129.4482">-dataAbertura:datetime</text><line style="stroke:#181818;stroke-width:0.5;" x1="49" x2="225.0313" y1="136.75" y2="136.75"/></g><!--class IChamadoRepository--><g class="entity" data-entity="IChamadoRepository" data-source-line="24" data-uid="ent0006" id="entity_IChamadoRepository"><rect fill="#F1F1F1" height="80.5938" rx="2.5" ry="2.5" style="stroke:#181818;stroke-width:0.5;" width="348.5879" x="1112" y="242.5"/><ellipse cx="1208.9951" cy="258.5" fill="#B4A7E5" rx="11" ry="11" style="stroke:#181818;stroke-width:1;"/><path d="M1204.917,254.2656 L1204.917,252.1094 L1212.3076,252.1094 L1212.3076,254.2656 L1209.8389,254.2656 L1209.8389,262.3438 L1212.3076,262.3438 L1212.3076,264.5 L1204.917,264.5 L1204.917,262.3438 L1207.3857,262.3438 L1207.3857,254.2656 L1204.917,254.2656 Z " fill="#000000"/><text fill="#000000" font-family="sans-serif" font-size="14" font-style="italic" lengthAdjust="spacing" textLength="146.0977" x="1229.4951" y="263.3467">IChamadoRepository</text><line style="stroke:#181818;stroke-width:0.5;" x1="1113" x2="1459.5879" y1="274.5" y2="274.5"/><line style="stroke:#181818;stroke-width:0.5;" x1="1113" x2="1459.5879" y1="282.5" y2="282.5"/><text fill="#000000" font-family="sans-serif" font-size="14" lengthAdjust="spacing" textLength="336.5879" x="1118" y="299.4951">+findByUsuario(usuarioId: int): List&lt;Chamado&gt;</text><text fill="#000000" font-family="sans-serif" font-size="14" lengthAdjust="spacing" textLength="259.2803" x="1118" y="315.792">+findByFiltro(filtro): List&lt;Chamado&gt;</text></g><!--link ControleConsultaChamado to IConsultarChamados--><g class="link" data-entity-1="ControleConsultaChamado" data-entity-2="IConsultarChamados" data-source-line="29" data-uid="lnk7" id="link_ControleConsultaChamado_IConsultarChamados"><path codeLine="29" d="M861.17,216.18 C976.15,207.19 1093.4747,198.0128 1179.8247,191.2628" fill="none" id="ControleConsultaChamado-to-IConsultarChamados" style="stroke:#181818;stroke-width:1;stroke-dasharray:7,7;"/><polygon fill="none" points="1197.77,189.86,1179.3571,185.281,1180.2923,197.2445,1197.77,189.86" style="stroke:#181818;stroke-width:1;"/></g><!--link TelaConsultaChamado to ControleConsultaChamado--><g class="link" data-entity-1="TelaConsultaChamado" data-entity-2="ControleConsultaChamado" data-source-line="30" data-uid="lnk8" id="link_TelaConsultaChamado_ControleConsultaChamado"><path codeLine="30" d="M267.32,233 C316.51,233 367.98,233 422.99,233" fill="none" id="TelaConsultaChamado-to-ControleConsultaChamado" style="stroke:#181818;stroke-width:1;"/><polygon fill="#181818" points="428.99,233,419.99,229,423.99,233,419.99,237,428.99,233" style="stroke:#181818;stroke-width:1;"/><text fill="#000000" font-family="sans-serif" font-size="13" lengthAdjust="spacing" textLength="100.7119" x="298" y="229.0669">consultar(filtro)</text></g><!--link ControleConsultaChamado to IChamadoRepository--><g class="link" data-entity-1="ControleConsultaChamado" data-entity-2="IChamadoRepository" data-source-line="31" data-uid="lnk9" id="link_ControleConsultaChamado_IChamadoRepository"><path codeLine="31" d="M861.17,249.82 C942.78,256.2 1028.6283,262.9119 1105.9383,268.9619" fill="none" id="ControleConsultaChamado-to-IChamadoRepository" style="stroke:#181818;stroke-width:1;stroke-dasharray:7,7;"/><polygon fill="#181818" points="1111.92,269.43,1103.2595,264.74,1106.9352,269.0399,1102.6354,272.7156,1111.92,269.43" style="stroke:#181818;stroke-width:1;"/><text fill="#000000" font-family="sans-serif" font-size="13" lengthAdjust="spacing" textLength="189.7505" x="892" y="249.0669">findByUsuario()/findByFiltro()</text></g><!--SRC=[XPBRQiCm38RlynIwRDZQxTgKG5SO57QrmmCeiTA9kNQmPLXtUFUvENHfbx8RO_z2-lHB3czi6_IuWyfW22iHpsKKsbJEFl47mMrcg1OG1vwthmAQFLN2pcOPMo5VOqMmMJiReX7qwrVSeNOXozfwy4m6Xs0VW-MoTD5gzFkYWCyCu0hedKlszsp4krdUIjLGSbQtSgTYuocGFSY6Ww1wIEUohrpasVS0Jj2KPEWllEeYHtPrtdiFl8OO8dfs6wqWUSqLdC16h6Fjr1dBO6iEh5LARAz9ZyQfaEPhjwsIkfSOnagJO9urQXgh6WLN9Nc97bLwaF2E3l3n_BiE7gbnWSNvVU-jPgllzY-TZza_VduJ-aNqWv_mVMcwYyLNCVKRfhx1V5vSt9AQMFzbPZ4r07LcFhyvyPR_0000]--></g></svg>