<svg xmlns="http://www.w3.org/2000/svg" xmlns:xlink="http://www.w3.org/1999/xlink" contentStyleType="text/css" data-diagram-type="CLASS" height="317px" preserveAspectRatio="none" style="width:1220px;height:317px;background:#FFFFFF;" version="1.1" viewBox="0 0 1220 317" width="1220px" zoomAndPan="magnify"><defs/><g><!--class IConsultarHistoricoChamado--><g class="entity" data-entity="IConsultarHistoricoChamado" data-source-line="4" data-uid="ent0002" id="entity_IConsultarHistoricoChamado"><rect fill="#F1F1F1" height="48" rx="2.5" ry="2.5" style="stroke:#181818;stroke-width:0.5;" width="231.7939" x="912" y="163"/><ellipse cx="927" cy="179" fill="#B4A7E5" rx="11" ry="11" style="stroke:#181818;stroke-width:1;"/><path d="M922.9219,174.7656 L922.9219,172.6094 L930.3125,172.6094 L930.3125,174.7656 L927.8438,174.7656 L927.8438,182.8438 L930.3125,182.8438 L930.3125,185 L922.9219,185 L922.9219,182.8438 L925.3906,182.8438 L925.3906,174.7656 L922.9219,174.7656 Z " fill="#000000"/><text fill="#000000" font-family="sans-serif" font-size="14" font-style="italic" lengthAdjust="spacing" textLength="199.7939" x="941" y="183.8467">IConsultarHistoricoChamado</text><line style="stroke:#181818;stroke-width:0.5;" x1="913" x2="1142.7939" y1="195" y2="195"/><line style="stroke:#181818;stroke-width:0.5;" x1="913" x2="1142.7939" y1="203" y2="203"/></g><!--class TelaHistoricoChamado--><g class="entity" data-entity="TelaHistoricoChamado" data-source-line="6" data-uid="ent0003" id="entity_TelaHistoricoChamado"><rect fill="#F1F1F1" height="72.5625" rx="2.5" ry="2.5" style="stroke:#181818;stroke-width:0.5;" width="204.9238" x="7" y="196.5"/><ellipse cx="28.6239" cy="216.6328" fill="#ADD1B2" rx="11" ry="11" style="stroke:#181818;stroke-width:1;"/><path d="M31.5926,222.2734 Q31.0145,222.5703 30.3739,222.7109 Q29.7333,222.8672 29.0301,222.8672 Q26.5301,222.8672 25.202,221.2266 Q23.8895,219.5703 23.8895,216.4453 Q23.8895,213.3203 25.202,211.6641 Q26.5301,210.0078 29.0301,210.0078 Q29.7333,210.0078 30.3739,210.1641 Q31.0301,210.3203 31.5926,210.6172 L31.5926,213.3359 Q30.9676,212.7578 30.3739,212.4922 Q29.7801,212.2109 29.1551,212.2109 Q27.8114,212.2109 27.1239,213.2891 Q26.4364,214.3516 26.4364,216.4453 Q26.4364,218.5391 27.1239,219.6172 Q27.8114,220.6797 29.1551,220.6797 Q29.7801,220.6797 30.3739,220.4141 Q30.9676,220.1328 31.5926,219.5547 L31.5926,222.2734 Z " fill="#000000"/><text fill="#000000" font-family="sans-serif" font-size="12" font-style="italic" lengthAdjust="spacing" textLength="71.9883" x="87.2038" y="212.6387">&#171;boundary&#187;</text><text fill="#000000" font-family="sans-serif" font-size="14" lengthAdjust="spacing" textLength="158.2041" x="44.0958" y="228.4639">TelaHistoricoChamado</text><line style="stroke:#181818;stroke-width:0.5;" x1="8" x2="210.9238" y1="236.7656" y2="236.7656"/><line style="stroke:#181818;stroke-width:0.5;" x1="8" x2="210.9238" y1="244.7656" y2="244.7656"/><text fill="#000000" font-family="sans-serif" font-size="14" lengthAdjust="spacing" textLength="192.9238" x="13" y="261.7607">+consultar(chamadoId: int)</text></g><!--class ControleHistoricoChamado--><g class="entity" data-entity="ControleHistoricoChamado" data-source-line="10" data-uid="ent0004" id="entity_ControleHistoricoChamado"><rect fill="#F1F1F1" height="72.5625" rx="2.5" ry="2.5" style="stroke:#181818;stroke-width:0.5;" width="323.6982" x="344" y="196.5"/><ellipse cx="407.5503" cy="216.6328" fill="#ADD1B2" rx="11" ry="11" style="stroke:#181818;stroke-width:1;"/><path d="M410.519,222.2734 Q409.9409,222.5703 409.3003,222.7109 Q408.6597,222.8672 407.9565,222.8672 Q405.4565,222.8672 404.1284,221.2266 Q402.8159,219.5703 402.8159,216.4453 Q402.8159,213.3203 404.1284,211.6641 Q405.4565,210.0078 407.9565,210.0078 Q408.6597,210.0078 409.3003,210.1641 Q409.9565,210.3203 410.519,210.6172 L410.519,213.3359 Q409.894,212.7578 409.3003,212.4922 Q408.7065,212.2109 408.0815,212.2109 Q406.7378,212.2109 406.0503,213.2891 Q405.3628,214.3516 405.3628,216.4453 Q405.3628,218.5391 406.0503,219.6172 Q406.7378,220.6797 408.0815,220.6797 Q408.7065,220.6797 409.3003,220.4141 Q409.894,220.1328 410.519,219.5547 L410.519,222.2734 Z " fill="#000000"/><text fill="#000000" font-family="sans-serif" font-size="12" font-style="italic" lengthAdjust="spacing" textLength="56.6719" x="493.7632" y="212.6387">&#171;control&#187;</text><text fill="#000000" font-family="sans-serif" font-size="14" lengthAdjust="spacing" textLength="188.0977" x="428.0503" y="228.4639">ControleHistoricoChamado</text><line style="stroke:#181818;stroke-width:0.5;" x1="345" x2="666.6982" y1="236.7656" y2="236.7656"/><line style="stroke:#181818;stroke-width:0.5;" x1="345" x2="666.6982" y1="244.7656" y2="244.7656"/><text fill="#000000" font-family="sans-serif" font-size="14" lengthAdjust="spacing" textLength="311.6982" x="350" y="261.7607">+consultar(chamadoId: int): List&lt;Historico&gt;</text></g><!--class Historico--><g class="entity" data-entity="Historico" data-source-line="14" data-uid="ent0005" id="entity_Historico"><rect fill="#F1F1F1" height="154.0469" rx="2.5" ry="2.5" style="stroke:#181818;stroke-width:0.5;" width="122.1953" x="48.5" y="7"/><ellipse cx="76.3347" cy="27.1328" fill="#ADD1B2" rx="11" ry="11" style="stroke:#181818;stroke-width:1;"/><path d="M79.3034,32.7734 Q78.7253,33.0703 78.0847,33.2109 Q77.444,33.3672 76.7409,33.3672 Q74.2409,33.3672 72.9128,31.7266 Q71.6003,30.0703 71.6003,26.9453 Q71.6003,23.8203 72.9128,22.1641 Q74.2409,20.5078 76.7409,20.5078 Q77.444,20.5078 78.0847,20.6641 Q78.7409,20.8203 79.3034,21.1172 L79.3034,23.8359 Q78.6784,23.2578 78.0847,22.9922 Q77.4909,22.7109 76.8659,22.7109 Q75.5222,22.7109 74.8347,23.7891 Q74.1472,24.8516 74.1472,26.9453 Q74.1472,29.0391 74.8347,30.1172 Q75.5222,31.1797 76.8659,31.1797 Q77.4909,31.1797 78.0847,30.9141 Q78.6784,30.6328 79.3034,30.0547 L79.3034,32.7734 Z " fill="#000000"/><text fill="#000000" font-family="sans-serif" font-size="12" font-style="italic" lengthAdjust="spacing" textLength="49.6465" x="99.2005" y="23.1387">&#171;entity&#187;</text><text fill="#000000" font-family="sans-serif" font-size="14" lengthAdjust="spacing" textLength="61.6738" x="93.1868" y="38.9639">Historico</text><line style="stroke:#181818;stroke-width:0.5;" x1="49.5" x2="169.6953" y1="47.2656" y2="47.2656"/><text fill="#000000" font-family="sans-serif" font-size="14" lengthAdjust="spacing" textLength="40.7969" x="54.5" y="64.2607">-id:int</text><text fill="#000000" font-family="sans-serif" font-size="14" lengthAdjust="spacing" textLength="105.8545" x="54.5" y="80.5576">-chamadoId:int</text><text fill="#000000" font-family="sans-serif" font-size="14" lengthAdjust="spacing" textLength="104.501" x="54.5" y="96.8545">-data:datetime</text><text fill="#000000" font-family="sans-serif" font-size="14" lengthAdjust="spacing" textLength="83.3779" x="54.5" y="113.1514">-acao:string</text><text fill="#000000" font-family="sans-serif" font-size="14" lengthAdjust="spacing" textLength="110.1953" x="54.5" y="129.4482">-detalhes:string</text><text fill="#000000" font-family="sans-serif" font-size="14" lengthAdjust="spacing" textLength="92.8662" x="54.5" y="145.7451">-usuarioId:int</text><line style="stroke:#181818;stroke-width:0.5;" x1="49.5" x2="169.6953" y1="153.0469" y2="153.0469"/></g><!--class IHistoricoRepository--><g class="entity" data-entity="IHistoricoRepository" data-source-line="23" data-uid="ent0006" id="entity_IHistoricoRepository"><rect fill="#F1F1F1" height="64.2969" rx="2.5" ry="2.5" style="stroke:#181818;stroke-width:0.5;" width="370.0459" x="843" y="246"/><ellipse cx="953.3354" cy="262" fill="#B4A7E5" rx="11" ry="11" style="stroke:#181818;stroke-width:1;"/><path d="M949.2573,257.7656 L949.2573,255.6094 L956.6479,255.6094 L956.6479,257.7656 L954.1792,257.7656 L954.1792,265.8438 L956.6479,265.8438 L956.6479,268 L949.2573,268 L949.2573,265.8438 L951.7261,265.8438 L951.7261,257.7656 L949.2573,257.7656 Z " fill="#000000"/><text fill="#000000" font-family="sans-serif" font-size="14" font-style="italic" lengthAdjust="spacing" textLength="140.875" x="973.8354" y="266.8467">IHistoricoRepository</text><line style="stroke:#181818;stroke-width:0.5;" x1="844" x2="1212.0459" y1="278" y2="278"/><line style="stroke:#181818;stroke-width:0.5;" x1="844" x2="1212.0459" y1="286" y2="286"/><text fill="#000000" font-family="sans-serif" font-size="14" lengthAdjust="spacing" textLength="358.0459" x="849" y="302.9951">+findByChamado(chamadoId: int): List&lt;Historico&gt;</text></g><!--link ControleHistoricoChamado to IConsultarHistoricoChamado--><g class="link" data-entity-1="ControleHistoricoChamado" data-entity-2="IConsultarHistoricoChamado" data-source-line="27" data-uid="lnk7" id="link_ControleHistoricoChamado_IConsultarHistoricoChamado"><path codeLine="27" d="M668.33,218.73 C747.2,211.75 822.3702,205.1079 893.9602,198.7679" fill="none" id="ControleHistoricoChamado-to-IConsultarHistoricoChamado" style="stroke:#181818;stroke-width:1;stroke-dasharray:7,7;"/><polygon fill="none" points="911.89,197.18,893.4309,192.7913,894.4895,204.7445,911.89,197.18" style="stroke:#181818;stroke-width:1;"/></g><!--link TelaHistoricoChamado to ControleHistoricoChamado--><g class="link" data-entity-1="TelaHistoricoChamado" data-entity-2="ControleHistoricoChamado" data-source-line="28" data-uid="lnk8" id="link_TelaHistoricoChamado_ControleHistoricoChamado"><path codeLine="28" d="M212.09,233 C252.16,233 293.17,233 337.66,233" fill="none" id="TelaHistoricoChamado-to-ControleHistoricoChamado" style="stroke:#181818;stroke-width:1;"/><polygon fill="#181818" points="343.66,233,334.66,229,338.66,233,334.66,237,343.66,233" style="stroke:#181818;stroke-width:1;"/><text fill="#000000" font-family="sans-serif" font-size="13" lengthAdjust="spacing" textLength="70.5161" x="243" y="229.0669">consultar()</text></g><!--link ControleHistoricoChamado to IHistoricoRepository--><g class="link" data-entity-1="ControleHistoricoChamado" data-entity-2="IHistoricoRepository" data-source-line="29" data-uid="lnk9" id="link_ControleHistoricoChamado_IHistoricoRepository"><path codeLine="29" d="M668.33,246.96 C723.64,251.75 779.9823,256.6228 836.9623,261.5528" fill="none" id="ControleHistoricoChamado-to-IHistoricoRepository" style="stroke:#181818;stroke-width:1;stroke-dasharray:7,7;"/><polygon fill="#181818" points="842.94,262.07,834.3183,257.3091,837.9586,261.639,833.6287,265.2793,842.94,262.07" style="stroke:#181818;stroke-width:1;"/><text fill="#000000" font-family="sans-serif" font-size="13" lengthAdjust="spacing" textLength="113.5532" x="699" y="246.0669">findByChamado()</text></g><!--SRC=[ZP71JiCm38RlUGeVgL0dpb5L2NQX4YVW1Rp4NItQP4hSGu6zEr5BIvcsQPV8iftlzs_73tO73DY1QJ76Hv70krweCjwzyIV1Wsgf5X0FWVUDWEL0HjWxfTW9XHeDGRNrBlQjO7ZcA3wmyTi6ExHUgP4BxzJYQGsAOkTxPp4CPGbVe03kmSoaEpDrLLP3Kif07MTOKfFWMpe3D5Ff1fw6b_IzM1ZbIc199Y8vOHa7JBmSsEhqUmp_W7F6eg1E3mbtD6RGeDSnBTNjfmuIR1kAwrmVUmmySux_5hjCyae77pd5m-oiPcUVXb_hjxcxkBZDvhkyTiMpvylpyl8fz6hpsJNXyhn9VU8l-m40]--></g></svg>