<svg xmlns="http://www.w3.org/2000/svg" xmlns:xlink="http://www.w3.org/1999/xlink" contentStyleType="text/css" data-diagram-type="CLASS" height="434px" preserveAspectRatio="none" style="width:1387px;height:434px;background:#FFFFFF;" version="1.1" viewBox="0 0 1387 434" width="1387px" zoomAndPan="magnify"><defs/><g><!--class IEncerrarChamado--><g class="entity" data-entity="IEncerrarChamado" data-source-line="4" data-uid="ent0002" id="entity_IEncerrarChamado"><rect fill="#F1F1F1" height="48" rx="2.5" ry="2.5" style="stroke:#181818;stroke-width:0.5;" width="162.9014" x="1093.5" y="7"/><ellipse cx="1108.5" cy="23" fill="#B4A7E5" rx="11" ry="11" style="stroke:#181818;stroke-width:1;"/><path d="M1104.4219,18.7656 L1104.4219,16.6094 L1111.8125,16.6094 L1111.8125,18.7656 L1109.3438,18.7656 L1109.3438,26.8438 L1111.8125,26.8438 L1111.8125,29 L1104.4219,29 L1104.4219,26.8438 L1106.8906,26.8438 L1106.8906,18.7656 L1104.4219,18.7656 Z " fill="#000000"/><text fill="#000000" font-family="sans-serif" font-size="14" font-style="italic" lengthAdjust="spacing" textLength="130.9014" x="1122.5" y="27.8467">IEncerrarChamado</text><line style="stroke:#181818;stroke-width:0.5;" x1="1094.5" x2="1255.4014" y1="39" y2="39"/><line style="stroke:#181818;stroke-width:0.5;" x1="1094.5" x2="1255.4014" y1="47" y2="47"/></g><!--class TelaFechamentoChamado--><g class="entity" data-entity="TelaFechamentoChamado" data-source-line="6" data-uid="ent0003" id="entity_TelaFechamentoChamado"><rect fill="#F1F1F1" height="88.8594" rx="2.5" ry="2.5" style="stroke:#181818;stroke-width:0.5;" width="232.4658" x="7" y="174.5"/><ellipse cx="29.6236" cy="194.6328" fill="#ADD1B2" rx="11" ry="11" style="stroke:#181818;stroke-width:1;"/><path d="M32.5924,200.2734 Q32.0143,200.5703 31.3736,200.7109 Q30.733,200.8672 30.0299,200.8672 Q27.5299,200.8672 26.2018,199.2266 Q24.8893,197.5703 24.8893,194.4453 Q24.8893,191.3203 26.2018,189.6641 Q27.5299,188.0078 30.0299,188.0078 Q30.733,188.0078 31.3736,188.1641 Q32.0299,188.3203 32.5924,188.6172 L32.5924,191.3359 Q31.9674,190.7578 31.3736,190.4922 Q30.7799,190.2109 30.1549,190.2109 Q28.8111,190.2109 28.1236,191.2891 Q27.4361,192.3516 27.4361,194.4453 Q27.4361,196.5391 28.1236,197.6172 Q28.8111,198.6797 30.1549,198.6797 Q30.7799,198.6797 31.3736,198.4141 Q31.9674,198.1328 32.5924,197.5547 L32.5924,200.2734 Z " fill="#000000"/><text fill="#000000" font-family="sans-serif" font-size="12" font-style="italic" lengthAdjust="spacing" textLength="71.9883" x="101.0858" y="190.6387">&#171;boundary&#187;</text><text fill="#000000" font-family="sans-serif" font-size="14" lengthAdjust="spacing" textLength="183.5244" x="45.3178" y="206.4639">TelaFechamentoChamado</text><line style="stroke:#181818;stroke-width:0.5;" x1="8" x2="238.4658" y1="214.7656" y2="214.7656"/><line style="stroke:#181818;stroke-width:0.5;" x1="8" x2="238.4658" y1="222.7656" y2="222.7656"/><text fill="#000000" font-family="sans-serif" font-size="14" lengthAdjust="spacing" textLength="167.2275" x="13" y="239.7607">+exibir(chamadoId: int)</text><text fill="#000000" font-family="sans-serif" font-size="14" lengthAdjust="spacing" textLength="220.4658" x="13" y="256.0576">+confirmar(justificativa: string)</text></g><!--class ControleFechamentoChamado--><g class="entity" data-entity="ControleFechamentoChamado" data-source-line="11" data-uid="ent0004" id="entity_ControleFechamentoChamado"><rect fill="#F1F1F1" height="72.5625" rx="2.5" ry="2.5" style="stroke:#181818;stroke-width:0.5;" width="377.374" x="373" y="182.5"/><ellipse cx="450.728" cy="202.6328" fill="#ADD1B2" rx="11" ry="11" style="stroke:#181818;stroke-width:1;"/><path d="M453.6968,208.2734 Q453.1187,208.5703 452.478,208.7109 Q451.8374,208.8672 451.1343,208.8672 Q448.6343,208.8672 447.3062,207.2266 Q445.9937,205.5703 445.9937,202.4453 Q445.9937,199.3203 447.3062,197.6641 Q448.6343,196.0078 451.1343,196.0078 Q451.8374,196.0078 452.478,196.1641 Q453.1343,196.3203 453.6968,196.6172 L453.6968,199.3359 Q453.0718,198.7578 452.478,198.4922 Q451.8843,198.2109 451.2593,198.2109 Q449.9155,198.2109 449.228,199.2891 Q448.5405,200.3516 448.5405,202.4453 Q448.5405,204.5391 449.228,205.6172 Q449.9155,206.6797 451.2593,206.6797 Q451.8843,206.6797 452.478,206.4141 Q453.0718,206.1328 453.6968,205.5547 L453.6968,208.2734 Z " fill="#000000"/><text fill="#000000" font-family="sans-serif" font-size="12" font-style="italic" lengthAdjust="spacing" textLength="56.6719" x="549.6011" y="198.6387">&#171;control&#187;</text><text fill="#000000" font-family="sans-serif" font-size="14" lengthAdjust="spacing" textLength="213.418" x="471.228" y="214.4639">ControleFechamentoChamado</text><line style="stroke:#181818;stroke-width:0.5;" x1="374" x2="749.374" y1="222.7656" y2="222.7656"/><line style="stroke:#181818;stroke-width:0.5;" x1="374" x2="749.374" y1="230.7656" y2="230.7656"/><text fill="#000000" font-family="sans-serif" font-size="14" lengthAdjust="spacing" textLength="365.374" x="379" y="247.7607">+encerrar(chamadoId: int, justificativa: string): void</text></g><!--class Chamado--><g class="entity" data-entity="Chamado" data-source-line="15" data-uid="ent0005" id="entity_Chamado"><rect fill="#F1F1F1" height="121.4531" rx="2.5" ry="2.5" style="stroke:#181818;stroke-width:0.5;" width="204.7803" x="1072.5" y="90.5"/><ellipse cx="1137.1919" cy="110.6328" fill="#ADD1B2" rx="11" ry="11" style="stroke:#181818;stroke-width:1;"/><path d="M1140.1606,116.2734 Q1139.5825,116.5703 1138.9419,116.7109 Q1138.3013,116.8672 1137.5981,116.8672 Q1135.0981,116.8672 1133.77,115.2266 Q1132.4575,113.5703 1132.4575,110.4453 Q1132.4575,107.3203 1133.77,105.6641 Q1135.0981,104.0078 1137.5981,104.0078 Q1138.3013,104.0078 1138.9419,104.1641 Q1139.5981,104.3203 1140.1606,104.6172 L1140.1606,107.3359 Q1139.5356,106.7578 1138.9419,106.4922 Q1138.3481,106.2109 1137.7231,106.2109 Q1136.3794,106.2109 1135.6919,107.2891 Q1135.0044,108.3516 1135.0044,110.4453 Q1135.0044,112.5391 1135.6919,113.6172 Q1136.3794,114.6797 1137.7231,114.6797 Q1138.3481,114.6797 1138.9419,114.4141 Q1139.5356,114.1328 1140.1606,113.5547 L1140.1606,116.2734 Z " fill="#000000"/><text fill="#000000" font-family="sans-serif" font-size="12" font-style="italic" lengthAdjust="spacing" textLength="49.6465" x="1166.3169" y="106.6387">&#171;entity&#187;</text><text fill="#000000" font-family="sans-serif" font-size="14" lengthAdjust="spacing" textLength="66.8965" x="1157.6919" y="122.4639">Chamado</text><line style="stroke:#181818;stroke-width:0.5;" x1="1073.5" x2="1276.2803" y1="130.7656" y2="130.7656"/><text fill="#000000" font-family="sans-serif" font-size="14" lengthAdjust="spacing" textLength="40.7969" x="1078.5" y="147.7607">-id:int</text><text fill="#000000" font-family="sans-serif" font-size="14" lengthAdjust="spacing" textLength="92.9756" x="1078.5" y="164.0576">-status:string</text><text fill="#000000" font-family="sans-serif" font-size="14" lengthAdjust="spacing" textLength="191.4951" x="1078.5" y="180.3545">-dataFechamento:datetime</text><line style="stroke:#181818;stroke-width:0.5;" x1="1073.5" x2="1276.2803" y1="187.6563" y2="187.6563"/><text fill="#000000" font-family="sans-serif" font-size="14" lengthAdjust="spacing" textLength="192.7803" x="1078.5" y="204.6514">+fechar(justificativa:string)</text></g><!--class Historico--><g class="entity" data-entity="Historico" data-source-line="22" data-uid="ent0006" id="entity_Historico"><rect fill="#F1F1F1" height="121.4531" rx="2.5" ry="2.5" style="stroke:#181818;stroke-width:0.5;" width="126.6455" x="59.5" y="18.5"/><ellipse cx="89.3373" cy="38.6328" fill="#ADD1B2" rx="11" ry="11" style="stroke:#181818;stroke-width:1;"/><path d="M92.306,44.2734 Q91.7279,44.5703 91.0873,44.7109 Q90.4466,44.8672 89.7435,44.8672 Q87.2435,44.8672 85.9154,43.2266 Q84.6029,41.5703 84.6029,38.4453 Q84.6029,35.3203 85.9154,33.6641 Q87.2435,32.0078 89.7435,32.0078 Q90.4466,32.0078 91.0873,32.1641 Q91.7435,32.3203 92.306,32.6172 L92.306,35.3359 Q91.681,34.7578 91.0873,34.4922 Q90.4935,34.2109 89.8685,34.2109 Q88.5248,34.2109 87.8373,35.2891 Q87.1498,36.3516 87.1498,38.4453 Q87.1498,40.5391 87.8373,41.6172 Q88.5248,42.6797 89.8685,42.6797 Q90.4935,42.6797 91.0873,42.4141 Q91.681,42.1328 92.306,41.5547 L92.306,44.2734 Z " fill="#000000"/><text fill="#000000" font-family="sans-serif" font-size="12" font-style="italic" lengthAdjust="spacing" textLength="49.6465" x="112.6481" y="34.6387">&#171;entity&#187;</text><text fill="#000000" font-family="sans-serif" font-size="14" lengthAdjust="spacing" textLength="61.6738" x="106.6344" y="50.4639">Historico</text><line style="stroke:#181818;stroke-width:0.5;" x1="60.5" x2="185.1455" y1="58.7656" y2="58.7656"/><text fill="#000000" font-family="sans-serif" font-size="14" lengthAdjust="spacing" textLength="45.2471" x="65.5" y="75.7607">-id: int</text><text fill="#000000" font-family="sans-serif" font-size="14" lengthAdjust="spacing" textLength="108.9512" x="65.5" y="92.0576">-data: datetime</text><text fill="#000000" font-family="sans-serif" font-size="14" lengthAdjust="spacing" textLength="87.8281" x="65.5" y="108.3545">-acao: string</text><text fill="#000000" font-family="sans-serif" font-size="14" lengthAdjust="spacing" textLength="114.6455" x="65.5" y="124.6514">-detalhes: string</text><line style="stroke:#181818;stroke-width:0.5;" x1="60.5" x2="185.1455" y1="131.9531" y2="131.9531"/></g><!--class IChamadoRepository--><g class="entity" data-entity="IChamadoRepository" data-source-line="29" data-uid="ent0007" id="entity_IChamadoRepository"><rect fill="#F1F1F1" height="80.5938" rx="2.5" ry="2.5" style="stroke:#181818;stroke-width:0.5;" width="208.3965" x="1071" y="246.5"/><ellipse cx="1099.6345" cy="262.5" fill="#B4A7E5" rx="11" ry="11" style="stroke:#181818;stroke-width:1;"/><path d="M1095.5563,258.2656 L1095.5563,256.1094 L1102.947,256.1094 L1102.947,258.2656 L1100.4782,258.2656 L1100.4782,266.3438 L1102.947,266.3438 L1102.947,268.5 L1095.5563,268.5 L1095.5563,266.3438 L1098.0251,266.3438 L1098.0251,258.2656 L1095.5563,258.2656 Z " fill="#000000"/><text fill="#000000" font-family="sans-serif" font-size="14" font-style="italic" lengthAdjust="spacing" textLength="146.0977" x="1116.6644" y="267.3467">IChamadoRepository</text><line style="stroke:#181818;stroke-width:0.5;" x1="1072" x2="1278.3965" y1="278.5" y2="278.5"/><line style="stroke:#181818;stroke-width:0.5;" x1="1072" x2="1278.3965" y1="286.5" y2="286.5"/><text fill="#000000" font-family="sans-serif" font-size="14" lengthAdjust="spacing" textLength="196.3965" x="1077" y="303.4951">+findById(id: int): Chamado</text><text fill="#000000" font-family="sans-serif" font-size="14" lengthAdjust="spacing" textLength="139.1865" x="1077" y="319.792">+save(c: Chamado)</text></g><!--class IHistoricoRepository--><g class="entity" data-entity="IHistoricoRepository" data-source-line="34" data-uid="ent0008" id="entity_IHistoricoRepository"><rect fill="#F1F1F1" height="64.2969" rx="2.5" ry="2.5" style="stroke:#181818;stroke-width:0.5;" width="410.0977" x="970" y="363"/><ellipse cx="1100.3613" cy="379" fill="#B4A7E5" rx="11" ry="11" style="stroke:#181818;stroke-width:1;"/><path d="M1096.2832,374.7656 L1096.2832,372.6094 L1103.6738,372.6094 L1103.6738,374.7656 L1101.2051,374.7656 L1101.2051,382.8438 L1103.6738,382.8438 L1103.6738,385 L1096.2832,385 L1096.2832,382.8438 L1098.752,382.8438 L1098.752,374.7656 L1096.2832,374.7656 Z " fill="#000000"/><text fill="#000000" font-family="sans-serif" font-size="14" font-style="italic" lengthAdjust="spacing" textLength="140.875" x="1120.8613" y="383.8467">IHistoricoRepository</text><line style="stroke:#181818;stroke-width:0.5;" x1="971" x2="1379.0977" y1="395" y2="395"/><line style="stroke:#181818;stroke-width:0.5;" x1="971" x2="1379.0977" y1="403" y2="403"/><text fill="#000000" font-family="sans-serif" font-size="14" lengthAdjust="spacing" textLength="398.0977" x="976" y="419.9951">+registrar(chamadoId: int, acao: string, detalhes: string)</text></g><!--link ControleFechamentoChamado to IEncerrarChamado--><g class="link" data-entity-1="ControleFechamentoChamado" data-entity-2="IEncerrarChamado" data-source-line="38" data-uid="lnk9" id="link_ControleFechamentoChamado_IEncerrarChamado"><path codeLine="38" d="M653.15,182.36 C734.96,150.3 859.11,104.11 970,73 C1010.21,61.72 1037.9782,55.4397 1075.7582,48.2397" fill="none" id="ControleFechamentoChamado-to-IEncerrarChamado" style="stroke:#181818;stroke-width:1;stroke-dasharray:7,7;"/><polygon fill="none" points="1093.44,44.87,1074.635,42.3458,1076.8815,54.1337,1093.44,44.87" style="stroke:#181818;stroke-width:1;"/></g><!--link TelaFechamentoChamado to ControleFechamentoChamado--><g class="link" data-entity-1="TelaFechamentoChamado" data-entity-2="ControleFechamentoChamado" data-source-line="39" data-uid="lnk10" id="link_TelaFechamentoChamado_ControleFechamentoChamado"><path codeLine="39" d="M239.26,219 C280.17,219 321.36,219 366.75,219" fill="none" id="TelaFechamentoChamado-to-ControleFechamentoChamado" style="stroke:#181818;stroke-width:1;"/><polygon fill="#181818" points="372.75,219,363.75,215,367.75,219,363.75,223,372.75,219" style="stroke:#181818;stroke-width:1;"/><text fill="#000000" font-family="sans-serif" font-size="13" lengthAdjust="spacing" textLength="72.9917" x="270" y="215.0669">confirmar()</text></g><!--link ControleFechamentoChamado to IChamadoRepository--><g class="link" data-entity-1="ControleFechamentoChamado" data-entity-2="IChamadoRepository" data-source-line="40" data-uid="lnk11" id="link_ControleFechamentoChamado_IChamadoRepository"><path codeLine="40" d="M750.13,239.86 C855.63,251.6 977.3368,265.1267 1064.8068,274.8567" fill="none" id="ControleFechamentoChamado-to-IChamadoRepository" style="stroke:#181818;stroke-width:1;stroke-dasharray:7,7;"/><polygon fill="#181818" points="1070.77,275.52,1062.2674,270.5495,1065.8007,274.9672,1061.3829,278.5005,1070.77,275.52" style="stroke:#181818;stroke-width:1;"/><text fill="#000000" font-family="sans-serif" font-size="13" lengthAdjust="spacing" textLength="108.4751" x="806" y="240.0669">findById()/save()</text></g><!--link ControleFechamentoChamado to Chamado--><g class="link" data-entity-1="ControleFechamentoChamado" data-entity-2="Chamado" data-source-line="41" data-uid="lnk12" id="link_ControleFechamentoChamado_Chamado"><path codeLine="41" d="M750.13,198.14 C856.15,186.35 978.6067,172.723 1066.1167,162.993" fill="none" id="ControleFechamentoChamado-to-Chamado" style="stroke:#181818;stroke-width:1;stroke-dasharray:7,7;"/><polygon fill="#181818" points="1072.08,162.33,1062.6931,159.3491,1067.1106,162.8825,1063.5771,167.3001,1072.08,162.33" style="stroke:#181818;stroke-width:1;"/><text fill="#000000" font-family="sans-serif" font-size="13" lengthAdjust="spacing" textLength="51.416" x="834.5" y="174.0669">fechar()</text></g><!--link ControleFechamentoChamado to IHistoricoRepository--><g class="link" data-entity-1="ControleFechamentoChamado" data-entity-2="IHistoricoRepository" data-source-line="42" data-uid="lnk13" id="link_ControleFechamentoChamado_IHistoricoRepository"><path codeLine="42" d="M674.4,255.57 C755.97,281.74 869.37,317.14 970,345 C992.05,351.11 1009.7311,355.757 1032.6411,361.517" fill="none" id="ControleFechamentoChamado-to-IHistoricoRepository" style="stroke:#181818;stroke-width:1;stroke-dasharray:7,7;"/><polygon fill="#181818" points="1038.46,362.98,1030.707,356.9063,1033.6109,361.7608,1028.7563,364.6648,1038.46,362.98" style="stroke:#181818;stroke-width:1;"/><text fill="#000000" font-family="sans-serif" font-size="13" lengthAdjust="spacing" textLength="158.6152" x="781" y="288.0669">registrar("Fechamento")</text></g><!--SRC=[XPBTJiCm38Nl-nGMLwrWm7M4Ai44ehV02tY9kndQ12NUnFXvTq9_rh8LTjVOwVcEJnnUsBwYnnfqXI5SYtXUh8KAxUmZlnDS9XML0kB0yt8bODYJ5dOsITWA-H8rGN5hDNcFVhx26erBaaODdgZ2EzAnI5PSruIhguLRMuD-c-Vm0Gd0AT0RBzYdkhrI60LHFMjQqKd9laQVFg-3SCaQXJUe84IlTfb1yjNpviwATnLDCNNR6o4xptlGCvZ6ADWuDcFOJZg2M9fXel0CsAYeqtm6GLa7rKeq5OCoYaJ58mdNr3WgV-hxOtRuWNlFGPnd_PiCFVfd1jYX5FI4jeOQNJzITui4gnM5eVhrwscxCH_erGMEu6sVNydMt6mBatRGc50VITCFkA5KxuhPll1kZaDfJylOd7gRiV-p0-yju-yjE3__p0-NTNfBPxFydtrIexNC_YNcKn6g8RtieWdgcCW0xhRaA7KgNpMAzcJuxoJx1W00]--></g></svg>