<svg xmlns="http://www.w3.org/2000/svg" xmlns:xlink="http://www.w3.org/1999/xlink" contentStyleType="text/css" data-diagram-type="CLASS" height="519px" preserveAspectRatio="none" style="width:1195px;height:519px;background:#FFFFFF;" version="1.1" viewBox="0 0 1195 519" width="1195px" zoomAndPan="magnify"><defs/><g><!--class IFornecerFeedback--><g class="entity" data-entity="IFornecerFeedback" data-source-line="4" data-uid="ent0002" id="entity_IFornecerFeedback"><rect fill="#F1F1F1" height="48" rx="2.5" ry="2.5" style="stroke:#181818;stroke-width:0.5;" width="165.4922" x="1001.5" y="266.5"/><ellipse cx="1016.5" cy="282.5" fill="#B4A7E5" rx="11" ry="11" style="stroke:#181818;stroke-width:1;"/><path d="M1012.4219,278.2656 L1012.4219,276.1094 L1019.8125,276.1094 L1019.8125,278.2656 L1017.3438,278.2656 L1017.3438,286.3438 L1019.8125,286.3438 L1019.8125,288.5 L1012.4219,288.5 L1012.4219,286.3438 L1014.8906,286.3438 L1014.8906,278.2656 L1012.4219,278.2656 Z " fill="#000000"/><text fill="#000000" font-family="sans-serif" font-size="14" font-style="italic" lengthAdjust="spacing" textLength="133.4922" x="1030.5" y="287.3467">IFornecerFeedback</text><line style="stroke:#181818;stroke-width:0.5;" x1="1002.5" x2="1165.9922" y1="298.5" y2="298.5"/><line style="stroke:#181818;stroke-width:0.5;" x1="1002.5" x2="1165.9922" y1="306.5" y2="306.5"/></g><!--class TelaFeedback--><g class="entity" data-entity="TelaFeedback" data-source-line="6" data-uid="ent0003" id="entity_TelaFeedback"><rect fill="#F1F1F1" height="88.8594" rx="2.5" ry="2.5" style="stroke:#181818;stroke-width:0.5;" width="179.2275" x="17.5" y="337"/><ellipse cx="55.0708" cy="357.1328" fill="#ADD1B2" rx="11" ry="11" style="stroke:#181818;stroke-width:1;"/><path d="M58.0395,362.7734 Q57.4614,363.0703 56.8208,363.2109 Q56.1801,363.3672 55.477,363.3672 Q52.977,363.3672 51.6489,361.7266 Q50.3364,360.0703 50.3364,356.9453 Q50.3364,353.8203 51.6489,352.1641 Q52.977,350.5078 55.477,350.5078 Q56.1801,350.5078 56.8208,350.6641 Q57.477,350.8203 58.0395,351.1172 L58.0395,353.8359 Q57.4145,353.2578 56.8208,352.9922 Q56.227,352.7109 55.602,352.7109 Q54.2583,352.7109 53.5708,353.7891 Q52.8833,354.8516 52.8833,356.9453 Q52.8833,359.0391 53.5708,360.1172 Q54.2583,361.1797 55.602,361.1797 Q56.227,361.1797 56.8208,360.9141 Q57.4145,360.6328 58.0395,360.0547 L58.0395,362.7734 Z " fill="#000000"/><text fill="#000000" font-family="sans-serif" font-size="12" font-style="italic" lengthAdjust="spacing" textLength="71.9883" x="86.6275" y="353.1387">&#171;boundary&#187;</text><text fill="#000000" font-family="sans-serif" font-size="14" lengthAdjust="spacing" textLength="97.0703" x="74.0865" y="368.9639">TelaFeedback</text><line style="stroke:#181818;stroke-width:0.5;" x1="18.5" x2="195.7275" y1="377.2656" y2="377.2656"/><line style="stroke:#181818;stroke-width:0.5;" x1="18.5" x2="195.7275" y1="385.2656" y2="385.2656"/><text fill="#000000" font-family="sans-serif" font-size="14" lengthAdjust="spacing" textLength="167.2275" x="23.5" y="402.2607">+exibir(chamadoId: int)</text><text fill="#000000" font-family="sans-serif" font-size="14" lengthAdjust="spacing" textLength="108.8623" x="23.5" y="418.5576">+enviar(dados)</text></g><!--class ControleFeedback--><g class="entity" data-entity="ControleFeedback" data-source-line="11" data-uid="ent0004" id="entity_ControleFeedback"><rect fill="#F1F1F1" height="72.5625" rx="2.5" ry="2.5" style="stroke:#181818;stroke-width:0.5;" width="496.2441" x="359" y="345"/><ellipse cx="539.3901" cy="365.1328" fill="#ADD1B2" rx="11" ry="11" style="stroke:#181818;stroke-width:1;"/><path d="M542.3589,370.7734 Q541.7808,371.0703 541.1401,371.2109 Q540.4995,371.3672 539.7964,371.3672 Q537.2964,371.3672 535.9683,369.7266 Q534.6558,368.0703 534.6558,364.9453 Q534.6558,361.8203 535.9683,360.1641 Q537.2964,358.5078 539.7964,358.5078 Q540.4995,358.5078 541.1401,358.6641 Q541.7964,358.8203 542.3589,359.1172 L542.3589,361.8359 Q541.7339,361.2578 541.1401,360.9922 Q540.5464,360.7109 539.9214,360.7109 Q538.5776,360.7109 537.8901,361.7891 Q537.2026,362.8516 537.2026,364.9453 Q537.2026,367.0391 537.8901,368.1172 Q538.5776,369.1797 539.9214,369.1797 Q540.5464,369.1797 541.1401,368.9141 Q541.7339,368.6328 542.3589,368.0547 L542.3589,370.7734 Z " fill="#000000"/><text fill="#000000" font-family="sans-serif" font-size="12" font-style="italic" lengthAdjust="spacing" textLength="56.6719" x="595.0361" y="361.1387">&#171;control&#187;</text><text fill="#000000" font-family="sans-serif" font-size="14" lengthAdjust="spacing" textLength="126.9639" x="559.8901" y="376.9639">ControleFeedback</text><line style="stroke:#181818;stroke-width:0.5;" x1="360" x2="854.2441" y1="385.2656" y2="385.2656"/><line style="stroke:#181818;stroke-width:0.5;" x1="360" x2="854.2441" y1="393.2656" y2="393.2656"/><text fill="#000000" font-family="sans-serif" font-size="14" lengthAdjust="spacing" textLength="484.2441" x="365" y="410.2607">+registrarFeedback(usuarioId: int, chamadoId: int, dados): Feedback</text></g><!--class Feedback--><g class="entity" data-entity="Feedback" data-source-line="15" data-uid="ent0005" id="entity_Feedback"><rect fill="#F1F1F1" height="154.0469" rx="2.5" ry="2.5" style="stroke:#181818;stroke-width:0.5;" width="199.8652" x="7" y="147.5"/><ellipse cx="68.9644" cy="167.6328" fill="#ADD1B2" rx="11" ry="11" style="stroke:#181818;stroke-width:1;"/><path d="M71.9331,173.2734 Q71.355,173.5703 70.7144,173.7109 Q70.0737,173.8672 69.3706,173.8672 Q66.8706,173.8672 65.5425,172.2266 Q64.23,170.5703 64.23,167.4453 Q64.23,164.3203 65.5425,162.6641 Q66.8706,161.0078 69.3706,161.0078 Q70.0737,161.0078 70.7144,161.1641 Q71.3706,161.3203 71.9331,161.6172 L71.9331,164.3359 Q71.3081,163.7578 70.7144,163.4922 Q70.1206,163.2109 69.4956,163.2109 Q68.1519,163.2109 67.4644,164.2891 Q66.7769,165.3516 66.7769,167.4453 Q66.7769,169.5391 67.4644,170.6172 Q68.1519,171.6797 69.4956,171.6797 Q70.1206,171.6797 70.7144,171.4141 Q71.3081,171.1328 71.9331,170.5547 L71.9331,173.2734 Z " fill="#000000"/><text fill="#000000" font-family="sans-serif" font-size="12" font-style="italic" lengthAdjust="spacing" textLength="49.6465" x="98.3594" y="163.6387">&#171;entity&#187;</text><text fill="#000000" font-family="sans-serif" font-size="14" lengthAdjust="spacing" textLength="67.4365" x="89.4644" y="179.4639">Feedback</text><line style="stroke:#181818;stroke-width:0.5;" x1="8" x2="205.8652" y1="187.7656" y2="187.7656"/><text fill="#000000" font-family="sans-serif" font-size="14" lengthAdjust="spacing" textLength="40.7969" x="13" y="204.7607">-id:int</text><text fill="#000000" font-family="sans-serif" font-size="14" lengthAdjust="spacing" textLength="105.8545" x="13" y="221.0576">-chamadoId:int</text><text fill="#000000" font-family="sans-serif" font-size="14" lengthAdjust="spacing" textLength="187.8652" x="13" y="237.3545">-avaliacaoPrioridade:string</text><text fill="#000000" font-family="sans-serif" font-size="14" lengthAdjust="spacing" textLength="150.0352" x="13" y="253.6514">-notaAtendimento:int</text><text fill="#000000" font-family="sans-serif" font-size="14" lengthAdjust="spacing" textLength="129.623" x="13" y="269.9482">-comentario:string</text><text fill="#000000" font-family="sans-serif" font-size="14" lengthAdjust="spacing" textLength="104.501" x="13" y="286.2451">-data:datetime</text><line style="stroke:#181818;stroke-width:0.5;" x1="8" x2="205.8652" y1="293.5469" y2="293.5469"/></g><!--class IFeedbackRepository--><g class="entity" data-entity="IFeedbackRepository" data-source-line="24" data-uid="ent0006" id="entity_IFeedbackRepository"><rect fill="#F1F1F1" height="64.2969" rx="2.5" ry="2.5" style="stroke:#181818;stroke-width:0.5;" width="178.6377" x="994.5" y="349.5"/><ellipse cx="1009.5" cy="365.5" fill="#B4A7E5" rx="11" ry="11" style="stroke:#181818;stroke-width:1;"/><path d="M1005.4219,361.2656 L1005.4219,359.1094 L1012.8125,359.1094 L1012.8125,361.2656 L1010.3438,361.2656 L1010.3438,369.3438 L1012.8125,369.3438 L1012.8125,371.5 L1005.4219,371.5 L1005.4219,369.3438 L1007.8906,369.3438 L1007.8906,361.2656 L1005.4219,361.2656 Z " fill="#000000"/><text fill="#000000" font-family="sans-serif" font-size="14" font-style="italic" lengthAdjust="spacing" textLength="146.6377" x="1023.5" y="370.3467">IFeedbackRepository</text><line style="stroke:#181818;stroke-width:0.5;" x1="995.5" x2="1172.1377" y1="381.5" y2="381.5"/><line style="stroke:#181818;stroke-width:0.5;" x1="995.5" x2="1172.1377" y1="389.5" y2="389.5"/><text fill="#000000" font-family="sans-serif" font-size="14" lengthAdjust="spacing" textLength="136.958" x="1000.5" y="406.4951">+save(f: Feedback)</text></g><!--class IChamadoRepository--><g class="entity" data-entity="IChamadoRepository" data-source-line="28" data-uid="ent0007" id="entity_IChamadoRepository"><rect fill="#F1F1F1" height="64.2969" rx="2.5" ry="2.5" style="stroke:#181818;stroke-width:0.5;" width="208.3965" x="980" y="448.5"/><ellipse cx="1008.6345" cy="464.5" fill="#B4A7E5" rx="11" ry="11" style="stroke:#181818;stroke-width:1;"/><path d="M1004.5563,460.2656 L1004.5563,458.1094 L1011.947,458.1094 L1011.947,460.2656 L1009.4782,460.2656 L1009.4782,468.3438 L1011.947,468.3438 L1011.947,470.5 L1004.5563,470.5 L1004.5563,468.3438 L1007.0251,468.3438 L1007.0251,460.2656 L1004.5563,460.2656 Z " fill="#000000"/><text fill="#000000" font-family="sans-serif" font-size="14" font-style="italic" lengthAdjust="spacing" textLength="146.0977" x="1025.6644" y="469.3467">IChamadoRepository</text><line style="stroke:#181818;stroke-width:0.5;" x1="981" x2="1187.3965" y1="480.5" y2="480.5"/><line style="stroke:#181818;stroke-width:0.5;" x1="981" x2="1187.3965" y1="488.5" y2="488.5"/><text fill="#000000" font-family="sans-serif" font-size="14" lengthAdjust="spacing" textLength="196.3965" x="986" y="505.4951">+findById(id: int): Chamado</text></g><!--class Chamado--><g class="entity" data-entity="Chamado" data-source-line="31" data-uid="ent0008" id="entity_Chamado"><rect fill="#F1F1F1" height="105.1563" rx="2.5" ry="2.5" style="stroke:#181818;stroke-width:0.5;" width="109.4258" x="52.5" y="7"/><ellipse cx="72.2382" cy="27.1328" fill="#ADD1B2" rx="11" ry="11" style="stroke:#181818;stroke-width:1;"/><path d="M75.2069,32.7734 Q74.6288,33.0703 73.9882,33.2109 Q73.3476,33.3672 72.6444,33.3672 Q70.1444,33.3672 68.8163,31.7266 Q67.5038,30.0703 67.5038,26.9453 Q67.5038,23.8203 68.8163,22.1641 Q70.1444,20.5078 72.6444,20.5078 Q73.3476,20.5078 73.9882,20.6641 Q74.6444,20.8203 75.2069,21.1172 L75.2069,23.8359 Q74.5819,23.2578 73.9882,22.9922 Q73.3944,22.7109 72.7694,22.7109 Q71.4257,22.7109 70.7382,23.7891 Q70.0507,24.8516 70.0507,26.9453 Q70.0507,29.0391 70.7382,30.1172 Q71.4257,31.1797 72.7694,31.1797 Q73.3944,31.1797 73.9882,30.9141 Q74.5819,30.6328 75.2069,30.0547 L75.2069,32.7734 Z " fill="#000000"/><text fill="#000000" font-family="sans-serif" font-size="12" font-style="italic" lengthAdjust="spacing" textLength="49.6465" x="95.9161" y="23.1387">&#171;entity&#187;</text><text fill="#000000" font-family="sans-serif" font-size="14" lengthAdjust="spacing" textLength="66.8965" x="87.2911" y="38.9639">Chamado</text><line style="stroke:#181818;stroke-width:0.5;" x1="53.5" x2="160.9258" y1="47.2656" y2="47.2656"/><text fill="#000000" font-family="sans-serif" font-size="14" lengthAdjust="spacing" textLength="45.2471" x="58.5" y="64.2607">-id: int</text><text fill="#000000" font-family="sans-serif" font-size="14" lengthAdjust="spacing" textLength="90.6035" x="58.5" y="80.5576">-titulo: string</text><text fill="#000000" font-family="sans-serif" font-size="14" lengthAdjust="spacing" textLength="97.4258" x="58.5" y="96.8545">-status: string</text><line style="stroke:#181818;stroke-width:0.5;" x1="53.5" x2="160.9258" y1="104.1563" y2="104.1563"/></g><!--link ControleFeedback to IFornecerFeedback--><g class="link" data-entity-1="ControleFeedback" data-entity-2="IFornecerFeedback" data-source-line="37" data-uid="lnk9" id="link_ControleFeedback_IFornecerFeedback"><path codeLine="37" d="M798.81,344.95 C869.35,331.43 927.9515,320.2067 983.7015,309.5267" fill="none" id="ControleFeedback-to-IFornecerFeedback" style="stroke:#181818;stroke-width:1;stroke-dasharray:7,7;"/><polygon fill="none" points="1001.38,306.14,982.5726,303.6338,984.8304,315.4195,1001.38,306.14" style="stroke:#181818;stroke-width:1;"/></g><!--link TelaFeedback to ControleFeedback--><g class="link" data-entity-1="TelaFeedback" data-entity-2="ControleFeedback" data-source-line="38" data-uid="lnk10" id="link_TelaFeedback_ControleFeedback"><path codeLine="38" d="M196.75,381.5 C242.47,381.5 294.72,381.5 352.84,381.5" fill="none" id="TelaFeedback-to-ControleFeedback" style="stroke:#181818;stroke-width:1;"/><polygon fill="#181818" points="358.84,381.5,349.84,377.5,353.84,381.5,349.84,385.5,358.84,381.5" style="stroke:#181818;stroke-width:1;"/><text fill="#000000" font-family="sans-serif" font-size="13" lengthAdjust="spacing" textLength="90.1938" x="238" y="377.5669">enviar(dados)</text></g><!--link ControleFeedback to IChamadoRepository--><g class="link" data-entity-1="ControleFeedback" data-entity-2="IChamadoRepository" data-source-line="39" data-uid="lnk11" id="link_ControleFeedback_IChamadoRepository"><path codeLine="39" d="M783.19,418.01 C849.29,431.79 916.4462,445.7857 973.8762,457.7557" fill="none" id="ControleFeedback-to-IChamadoRepository" style="stroke:#181818;stroke-width:1;stroke-dasharray:7,7;"/><polygon fill="#181818" points="979.75,458.98,971.7555,453.2278,974.8552,457.9598,970.1232,461.0595,979.75,458.98" style="stroke:#181818;stroke-width:1;"/><text fill="#000000" font-family="sans-serif" font-size="13" lengthAdjust="spacing" textLength="63.521" x="886" y="435.5669">findById()</text></g><!--link ControleFeedback to IFeedbackRepository--><g class="link" data-entity-1="ControleFeedback" data-entity-2="IFeedbackRepository" data-source-line="40" data-uid="lnk12" id="link_ControleFeedback_IFeedbackRepository"><path codeLine="40" d="M855.24,381.5 C905.17,381.5 948.53,381.5 988.46,381.5" fill="none" id="ControleFeedback-to-IFeedbackRepository" style="stroke:#181818;stroke-width:1;stroke-dasharray:7,7;"/><polygon fill="#181818" points="994.46,381.5,985.46,377.5,989.46,381.5,985.46,385.5,994.46,381.5" style="stroke:#181818;stroke-width:1;"/><text fill="#000000" font-family="sans-serif" font-size="13" lengthAdjust="spacing" textLength="40.5742" x="897.5" y="377.5669">save()</text></g><!--SRC=[TLBBRi8m4BpdA_OOL40zMoWIHKBYLhNzWSNUm8fW8tk3IX__NYTEI13q4iMptfdPyOO3snDwF8AkC8IbYETjBRJHphxp5y5pLb4f80uyx_O2XZrfOMUpZAsGBr4JRDREMzBarqHcY_gGPIqTV525FGQBnTRLrg2_50LyGmRm1FJ9M_QvtkCHZTiO1P5raahspEXp4_4mWUotvrmvAzvLDEBL2HfeFUquYCUheRmEDNhk5QPmgpY59AFWoZe8ZeJ82ajhFyhCW8sApUtlmDSZUCQAKQDxZRgUem2fw8djhYrR9xWKieQFaTKDHAuvDrx7jmqAglWXYTSRQ-FmEtzlT7A1nVbB7qF0C-NbC5IASTIwIgxlEqksvkMoCJbtJwAWkzjGT0_H0UDOeC-bQKg7MAehfo1Dax0WA7KOiEZgxbddyv_YmMRThDHiLjplWxfTdKVCnQFHrJ3rVqqFebOfvSaV]--></g></svg>