<svg xmlns="http://www.w3.org/2000/svg" xmlns:xlink="http://www.w3.org/1999/xlink" contentStyleType="text/css" data-diagram-type="CLASS" height="283px" preserveAspectRatio="none" style="width:1232px;height:283px;background:#FFFFFF;" version="1.1" viewBox="0 0 1232 283" width="1232px" zoomAndPan="magnify"><defs/><g><!--class IVisualizarChamadosDesignados--><g class="entity" data-entity="IVisualizarChamadosDesignados" data-source-line="4" data-uid="ent0002" id="entity_IVisualizarChamadosDesignados"><rect fill="#F1F1F1" height="48" rx="2.5" ry="2.5" style="stroke:#181818;stroke-width:0.5;" width="259.6572" x="921" y="129.5"/><ellipse cx="936" cy="145.5" fill="#B4A7E5" rx="11" ry="11" style="stroke:#181818;stroke-width:1;"/><path d="M931.9219,141.2656 L931.9219,139.1094 L939.3125,139.1094 L939.3125,141.2656 L936.8438,141.2656 L936.8438,149.3438 L939.3125,149.3438 L939.3125,151.5 L931.9219,151.5 L931.9219,149.3438 L934.3906,149.3438 L934.3906,141.2656 L931.9219,141.2656 Z " fill="#000000"/><text fill="#000000" font-family="sans-serif" font-size="14" font-style="italic" lengthAdjust="spacing" textLength="227.6572" x="950" y="150.3467">IVisualizarChamadosDesignados</text><line style="stroke:#181818;stroke-width:0.5;" x1="922" x2="1179.6572" y1="161.5" y2="161.5"/><line style="stroke:#181818;stroke-width:0.5;" x1="922" x2="1179.6572" y1="169.5" y2="169.5"/></g><!--class TelaChamadosDesignados--><g class="entity" data-entity="TelaChamadosDesignados" data-source-line="6" data-uid="ent0003" id="entity_TelaChamadosDesignados"><rect fill="#F1F1F1" height="72.5625" rx="2.5" ry="2.5" style="stroke:#181818;stroke-width:0.5;" width="217.4863" x="7" y="163"/><ellipse cx="22" cy="183.1328" fill="#ADD1B2" rx="11" ry="11" style="stroke:#181818;stroke-width:1;"/><path d="M24.9688,188.7734 Q24.3906,189.0703 23.75,189.2109 Q23.1094,189.3672 22.4063,189.3672 Q19.9063,189.3672 18.5781,187.7266 Q17.2656,186.0703 17.2656,182.9453 Q17.2656,179.8203 18.5781,178.1641 Q19.9063,176.5078 22.4063,176.5078 Q23.1094,176.5078 23.75,176.6641 Q24.4063,176.8203 24.9688,177.1172 L24.9688,179.8359 Q24.3438,179.2578 23.75,178.9922 Q23.1563,178.7109 22.5313,178.7109 Q21.1875,178.7109 20.5,179.7891 Q19.8125,180.8516 19.8125,182.9453 Q19.8125,185.0391 20.5,186.1172 Q21.1875,187.1797 22.5313,187.1797 Q23.1563,187.1797 23.75,186.9141 Q24.3438,186.6328 24.9688,186.0547 L24.9688,188.7734 Z " fill="#000000"/><text fill="#000000" font-family="sans-serif" font-size="12" font-style="italic" lengthAdjust="spacing" textLength="71.9883" x="92.749" y="179.1387">&#171;boundary&#187;</text><text fill="#000000" font-family="sans-serif" font-size="14" lengthAdjust="spacing" textLength="185.4863" x="36" y="194.9639">TelaChamadosDesignados</text><line style="stroke:#181818;stroke-width:0.5;" x1="8" x2="223.4863" y1="203.2656" y2="203.2656"/><line style="stroke:#181818;stroke-width:0.5;" x1="8" x2="223.4863" y1="211.2656" y2="211.2656"/><text fill="#000000" font-family="sans-serif" font-size="14" lengthAdjust="spacing" textLength="57.5518" x="13" y="228.2607">+listar()</text></g><!--class ControleChamadosDesignados--><g class="entity" data-entity="ControleChamadosDesignados" data-source-line="10" data-uid="ent0004" id="entity_ControleChamadosDesignados"><rect fill="#F1F1F1" height="72.5625" rx="2.5" ry="2.5" style="stroke:#181818;stroke-width:0.5;" width="361.46" x="353" y="163"/><ellipse cx="421.79" cy="183.1328" fill="#ADD1B2" rx="11" ry="11" style="stroke:#181818;stroke-width:1;"/><path d="M424.7588,188.7734 Q424.1807,189.0703 423.54,189.2109 Q422.8994,189.3672 422.1963,189.3672 Q419.6963,189.3672 418.3682,187.7266 Q417.0557,186.0703 417.0557,182.9453 Q417.0557,179.8203 418.3682,178.1641 Q419.6963,176.5078 422.1963,176.5078 Q422.8994,176.5078 423.54,176.6641 Q424.1963,176.8203 424.7588,177.1172 L424.7588,179.8359 Q424.1338,179.2578 423.54,178.9922 Q422.9463,178.7109 422.3213,178.7109 Q420.9775,178.7109 420.29,179.7891 Q419.6025,180.8516 419.6025,182.9453 Q419.6025,185.0391 420.29,186.1172 Q420.9775,187.1797 422.3213,187.1797 Q422.9463,187.1797 423.54,186.9141 Q424.1338,186.6328 424.7588,186.0547 L424.7588,188.7734 Z " fill="#000000"/><text fill="#000000" font-family="sans-serif" font-size="12" font-style="italic" lengthAdjust="spacing" textLength="56.6719" x="521.644" y="179.1387">&#171;control&#187;</text><text fill="#000000" font-family="sans-serif" font-size="14" lengthAdjust="spacing" textLength="215.3799" x="442.29" y="194.9639">ControleChamadosDesignados</text><line style="stroke:#181818;stroke-width:0.5;" x1="354" x2="713.46" y1="203.2656" y2="203.2656"/><line style="stroke:#181818;stroke-width:0.5;" x1="354" x2="713.46" y1="211.2656" y2="211.2656"/><text fill="#000000" font-family="sans-serif" font-size="14" lengthAdjust="spacing" textLength="349.46" x="359" y="228.2607">+listarPorTecnico(tecnicoId: int): List&lt;Chamado&gt;</text></g><!--class Tecnico--><g class="entity" data-entity="Tecnico" data-source-line="14" data-uid="ent0005" id="entity_Tecnico"><rect fill="#F1F1F1" height="105.1563" rx="2.5" ry="2.5" style="stroke:#181818;stroke-width:0.5;" width="162.7256" x="34" y="15"/><ellipse cx="84.1689" cy="35.1328" fill="#ADD1B2" rx="11" ry="11" style="stroke:#181818;stroke-width:1;"/><path d="M87.1377,40.7734 Q86.5596,41.0703 85.9189,41.2109 Q85.2783,41.3672 84.5752,41.3672 Q82.0752,41.3672 80.7471,39.7266 Q79.4346,38.0703 79.4346,34.9453 Q79.4346,31.8203 80.7471,30.1641 Q82.0752,28.5078 84.5752,28.5078 Q85.2783,28.5078 85.9189,28.6641 Q86.5752,28.8203 87.1377,29.1172 L87.1377,31.8359 Q86.5127,31.2578 85.9189,30.9922 Q85.3252,30.7109 84.7002,30.7109 Q83.3564,30.7109 82.6689,31.7891 Q81.9814,32.8516 81.9814,34.9453 Q81.9814,37.0391 82.6689,38.1172 Q83.3564,39.1797 84.7002,39.1797 Q85.3252,39.1797 85.9189,38.9141 Q86.5127,38.6328 87.1377,38.0547 L87.1377,40.7734 Z " fill="#000000"/><text fill="#000000" font-family="sans-serif" font-size="12" font-style="italic" lengthAdjust="spacing" textLength="49.6465" x="106.7896" y="31.1387">&#171;entity&#187;</text><text fill="#000000" font-family="sans-serif" font-size="14" lengthAdjust="spacing" textLength="53.8877" x="104.6689" y="46.9639">Tecnico</text><line style="stroke:#181818;stroke-width:0.5;" x1="35" x2="195.7256" y1="55.2656" y2="55.2656"/><text fill="#000000" font-family="sans-serif" font-size="14" lengthAdjust="spacing" textLength="45.2471" x="40" y="72.2607">-id: int</text><text fill="#000000" font-family="sans-serif" font-size="14" lengthAdjust="spacing" textLength="94.0967" x="40" y="88.5576">-nome: string</text><text fill="#000000" font-family="sans-serif" font-size="14" lengthAdjust="spacing" textLength="150.7256" x="40" y="104.8545">-especialidade: string</text><line style="stroke:#181818;stroke-width:0.5;" x1="35" x2="195.7256" y1="112.1563" y2="112.1563"/></g><!--class Chamado--><g class="entity" data-entity="Chamado" data-source-line="20" data-uid="ent0006" id="entity_Chamado"><rect fill="#F1F1F1" height="121.4531" rx="2.5" ry="2.5" style="stroke:#181818;stroke-width:0.5;" width="138.1162" x="464.5" y="7"/><ellipse cx="497.1489" cy="27.1328" fill="#ADD1B2" rx="11" ry="11" style="stroke:#181818;stroke-width:1;"/><path d="M500.1176,32.7734 Q499.5395,33.0703 498.8989,33.2109 Q498.2583,33.3672 497.5551,33.3672 Q495.0551,33.3672 493.727,31.7266 Q492.4145,30.0703 492.4145,26.9453 Q492.4145,23.8203 493.727,22.1641 Q495.0551,20.5078 497.5551,20.5078 Q498.2583,20.5078 498.8989,20.6641 Q499.5551,20.8203 500.1176,21.1172 L500.1176,23.8359 Q499.4926,23.2578 498.8989,22.9922 Q498.3051,22.7109 497.6801,22.7109 Q496.3364,22.7109 495.6489,23.7891 Q494.9614,24.8516 494.9614,26.9453 Q494.9614,29.0391 495.6489,30.1172 Q496.3364,31.1797 497.6801,31.1797 Q498.3051,31.1797 498.8989,30.9141 Q499.4926,30.6328 500.1176,30.0547 L500.1176,32.7734 Z " fill="#000000"/><text fill="#000000" font-family="sans-serif" font-size="12" font-style="italic" lengthAdjust="spacing" textLength="49.6465" x="523.6958" y="23.1387">&#171;entity&#187;</text><text fill="#000000" font-family="sans-serif" font-size="14" lengthAdjust="spacing" textLength="66.8965" x="515.0708" y="38.9639">Chamado</text><line style="stroke:#181818;stroke-width:0.5;" x1="465.5" x2="601.6162" y1="47.2656" y2="47.2656"/><text fill="#000000" font-family="sans-serif" font-size="14" lengthAdjust="spacing" textLength="45.2471" x="470.5" y="64.2607">-id: int</text><text fill="#000000" font-family="sans-serif" font-size="14" lengthAdjust="spacing" textLength="90.6035" x="470.5" y="80.5576">-titulo: string</text><text fill="#000000" font-family="sans-serif" font-size="14" lengthAdjust="spacing" textLength="97.4258" x="470.5" y="96.8545">-status: string</text><text fill="#000000" font-family="sans-serif" font-size="14" lengthAdjust="spacing" textLength="126.1162" x="470.5" y="113.1514">-prioridade: string</text><line style="stroke:#181818;stroke-width:0.5;" x1="465.5" x2="601.6162" y1="120.4531" y2="120.4531"/></g><!--class IChamadoRepository--><g class="entity" data-entity="IChamadoRepository" data-source-line="27" data-uid="ent0007" id="entity_IChamadoRepository"><rect fill="#F1F1F1" height="64.2969" rx="2.5" ry="2.5" style="stroke:#181818;stroke-width:0.5;" width="348.2666" x="877" y="212.5"/><ellipse cx="973.8345" cy="228.5" fill="#B4A7E5" rx="11" ry="11" style="stroke:#181818;stroke-width:1;"/><path d="M969.7563,224.2656 L969.7563,222.1094 L977.147,222.1094 L977.147,224.2656 L974.6782,224.2656 L974.6782,232.3438 L977.147,232.3438 L977.147,234.5 L969.7563,234.5 L969.7563,232.3438 L972.2251,232.3438 L972.2251,224.2656 L969.7563,224.2656 Z " fill="#000000"/><text fill="#000000" font-family="sans-serif" font-size="14" font-style="italic" lengthAdjust="spacing" textLength="146.0977" x="994.3345" y="233.3467">IChamadoRepository</text><line style="stroke:#181818;stroke-width:0.5;" x1="878" x2="1224.2666" y1="244.5" y2="244.5"/><line style="stroke:#181818;stroke-width:0.5;" x1="878" x2="1224.2666" y1="252.5" y2="252.5"/><text fill="#000000" font-family="sans-serif" font-size="14" lengthAdjust="spacing" textLength="336.2666" x="883" y="269.4951">+findByTecnico(tecnicoId: int): List&lt;Chamado&gt;</text></g><!--link ControleChamadosDesignados to IVisualizarChamadosDesignados--><g class="link" data-entity-1="ControleChamadosDesignados" data-entity-2="IVisualizarChamadosDesignados" data-source-line="31" data-uid="lnk8" id="link_ControleChamadosDesignados_IVisualizarChamadosDesignados"><path codeLine="31" d="M714.07,183.48 C782.21,177.4 840.4714,172.2015 903.0514,166.6115" fill="none" id="ControleChamadosDesignados-to-IVisualizarChamadosDesignados" style="stroke:#181818;stroke-width:1;stroke-dasharray:7,7;"/><polygon fill="none" points="920.98,165.01,902.5176,160.6353,903.5852,172.5877,920.98,165.01" style="stroke:#181818;stroke-width:1;"/></g><!--link TelaChamadosDesignados to ControleChamadosDesignados--><g class="link" data-entity-1="TelaChamadosDesignados" data-entity-2="ControleChamadosDesignados" data-source-line="32" data-uid="lnk9" id="link_TelaChamadosDesignados_ControleChamadosDesignados"><path codeLine="32" d="M224.17,199.5 C263.41,199.5 302.92,199.5 346.72,199.5" fill="none" id="TelaChamadosDesignados-to-ControleChamadosDesignados" style="stroke:#181818;stroke-width:1;"/><polygon fill="#181818" points="352.72,199.5,343.72,195.5,347.72,199.5,343.72,203.5,352.72,199.5" style="stroke:#181818;stroke-width:1;"/><text fill="#000000" font-family="sans-serif" font-size="13" lengthAdjust="spacing" textLength="42.5483" x="267.5" y="195.5669">listar()</text></g><!--link ControleChamadosDesignados to IChamadoRepository--><g class="link" data-entity-1="ControleChamadosDesignados" data-entity-2="IChamadoRepository" data-source-line="33" data-uid="lnk10" id="link_ControleChamadosDesignados_IChamadoRepository"><path codeLine="33" d="M714.07,215.18 C766.81,219.78 818.3927,224.2781 870.7327,228.8481" fill="none" id="ControleChamadosDesignados-to-IChamadoRepository" style="stroke:#181818;stroke-width:1;stroke-dasharray:7,7;"/><polygon fill="#181818" points="876.71,229.37,868.092,224.6023,871.729,228.9351,867.3962,232.572,876.71,229.37" style="stroke:#181818;stroke-width:1;"/><text fill="#000000" font-family="sans-serif" font-size="13" lengthAdjust="spacing" textLength="101.4736" x="745" y="213.5669">findByTecnico()</text></g><!--link Tecnico to Chamado--><g class="link" data-entity-1="Tecnico" data-entity-2="Chamado" data-source-line="34" data-uid="lnk11" id="link_Tecnico_Chamado"><path codeLine="34" d="M197.2,67.5 C274.94,67.5 391.22,67.5 464.41,67.5" fill="none" id="Tecnico-Chamado" style="stroke:#181818;stroke-width:1;"/><text fill="#000000" font-family="sans-serif" font-size="13" lengthAdjust="spacing" textLength="67.2979" x="255" y="63.5669">designado</text><text fill="#000000" font-family="sans-serif" font-size="13" lengthAdjust="spacing" textLength="8.271" x="204.8569" y="80.2338">1</text><text fill="#000000" font-family="sans-serif" font-size="13" lengthAdjust="spacing" textLength="23.0356" x="433.473" y="80.2894">0..*</text></g><!--SRC=[bL9DJm8n4BttLqps19hTu7L3Db6ya7WmIhoNTe29fRDfPm-W_dUhooBVn5FRUPttEkyrlfElTT1BC4x7U2yIQDe8ZWtxLreZ39J3cO0m19el12m5D4BibI8l66RQ88pVA3RQqLg7qK8ljUNuY97c_cUdr2yrJD3fOnI6moattkgmgYhu00Lm2uwYwD3hW_hgkaVi9R33amoc1Gy9dZbCq7Wot9Ds7TiIqhFx9Job6yCDMRMZisb8fEY5PFke7AZjRG-UbrX2J6xvULl1MAEXP8BLTWVw6w3LkaQSeCRnFdMQHPguNwi3SJZMsiba8_Y2DKSI3glEd1bv-x3wXpCNl2-Ap-fA_6Top_FgKgZbzXDSbgzE3LeUpDXNNQpPNPQK8HiKnKsspQG4st5-0m00]--></g></svg>