<svg xmlns="http://www.w3.org/2000/svg" xmlns:xlink="http://www.w3.org/1999/xlink" contentStyleType="text/css" data-diagram-type="CLASS" height="354px" preserveAspectRatio="none" style="width:1078px;height:354px;background:#FFFFFF;" version="1.1" viewBox="0 0 1078 354" width="1078px" zoomAndPan="magnify"><defs/><g><!--class IVisualizarNotificacoes--><g class="entity" data-entity="IVisualizarNotificacoes" data-source-line="4" data-uid="ent0002" id="entity_IVisualizarNotificacoes"><rect fill="#F1F1F1" height="48" rx="2.5" ry="2.5" style="stroke:#181818;stroke-width:0.5;" width="189.4863" x="796.5" y="183"/><ellipse cx="811.5" cy="199" fill="#B4A7E5" rx="11" ry="11" style="stroke:#181818;stroke-width:1;"/><path d="M807.4219,194.7656 L807.4219,192.6094 L814.8125,192.6094 L814.8125,194.7656 L812.3438,194.7656 L812.3438,202.8438 L814.8125,202.8438 L814.8125,205 L807.4219,205 L807.4219,202.8438 L809.8906,202.8438 L809.8906,194.7656 L807.4219,194.7656 Z " fill="#000000"/><text fill="#000000" font-family="sans-serif" font-size="14" font-style="italic" lengthAdjust="spacing" textLength="157.4863" x="825.5" y="203.8467">IVisualizarNotificacoes</text><line style="stroke:#181818;stroke-width:0.5;" x1="797.5" x2="984.9863" y1="215" y2="215"/><line style="stroke:#181818;stroke-width:0.5;" x1="797.5" x2="984.9863" y1="223" y2="223"/></g><!--class TelaNotificacoes--><g class="entity" data-entity="TelaNotificacoes" data-source-line="6" data-uid="ent0003" id="entity_TelaNotificacoes"><rect fill="#F1F1F1" height="88.8594" rx="2.5" ry="2.5" style="stroke:#181818;stroke-width:0.5;" width="154.0098" x="7" y="212.5"/><ellipse cx="25.0125" cy="232.6328" fill="#ADD1B2" rx="11" ry="11" style="stroke:#181818;stroke-width:1;"/><path d="M27.9812,238.2734 Q27.4031,238.5703 26.7625,238.7109 Q26.1218,238.8672 25.4187,238.8672 Q22.9187,238.8672 21.5906,237.2266 Q20.2781,235.5703 20.2781,232.4453 Q20.2781,229.3203 21.5906,227.6641 Q22.9187,226.0078 25.4187,226.0078 Q26.1218,226.0078 26.7625,226.1641 Q27.4187,226.3203 27.9812,226.6172 L27.9812,229.3359 Q27.3562,228.7578 26.7625,228.4922 Q26.1687,228.2109 25.5437,228.2109 Q24.2,228.2109 23.5125,229.2891 Q22.825,230.3516 22.825,232.4453 Q22.825,234.5391 23.5125,235.6172 Q24.2,236.6797 25.5437,236.6797 Q26.1687,236.6797 26.7625,236.4141 Q27.3562,236.1328 27.9812,235.5547 L27.9812,238.2734 Z " fill="#000000"/><text fill="#000000" font-family="sans-serif" font-size="12" font-style="italic" lengthAdjust="spacing" textLength="71.9883" x="61.3455" y="228.6387">&#171;boundary&#187;</text><text fill="#000000" font-family="sans-serif" font-size="14" lengthAdjust="spacing" textLength="115.3154" x="39.6819" y="244.4639">TelaNotificacoes</text><line style="stroke:#181818;stroke-width:0.5;" x1="8" x2="160.0098" y1="252.7656" y2="252.7656"/><line style="stroke:#181818;stroke-width:0.5;" x1="8" x2="160.0098" y1="260.7656" y2="260.7656"/><text fill="#000000" font-family="sans-serif" font-size="14" lengthAdjust="spacing" textLength="57.5518" x="13" y="277.7607">+listar()</text><text fill="#000000" font-family="sans-serif" font-size="14" lengthAdjust="spacing" textLength="142.0098" x="13" y="294.0576">+marcarLida(id: int)</text></g><!--class ControleNotificacao--><g class="entity" data-entity="ControleNotificacao" data-source-line="11" data-uid="ent0004" id="entity_ControleNotificacao"><rect fill="#F1F1F1" height="88.8594" rx="2.5" ry="2.5" style="stroke:#181818;stroke-width:0.5;" width="297.2705" x="353" y="212.5"/><ellipse cx="428.4448" cy="232.6328" fill="#ADD1B2" rx="11" ry="11" style="stroke:#181818;stroke-width:1;"/><path d="M431.4136,238.2734 Q430.8354,238.5703 430.1948,238.7109 Q429.5542,238.8672 428.8511,238.8672 Q426.3511,238.8672 425.0229,237.2266 Q423.7104,235.5703 423.7104,232.4453 Q423.7104,229.3203 425.0229,227.6641 Q426.3511,226.0078 428.8511,226.0078 Q429.5542,226.0078 430.1948,226.1641 Q430.8511,226.3203 431.4136,226.6172 L431.4136,229.3359 Q430.7886,228.7578 430.1948,228.4922 Q429.6011,228.2109 428.9761,228.2109 Q427.6323,228.2109 426.9448,229.2891 Q426.2573,230.3516 426.2573,232.4453 Q426.2573,234.5391 426.9448,235.6172 Q427.6323,236.6797 428.9761,236.6797 Q429.6011,236.6797 430.1948,236.4141 Q430.7886,236.1328 431.4136,235.5547 L431.4136,238.2734 Z " fill="#000000"/><text fill="#000000" font-family="sans-serif" font-size="12" font-style="italic" lengthAdjust="spacing" textLength="56.6719" x="489.5493" y="228.6387">&#171;control&#187;</text><text fill="#000000" font-family="sans-serif" font-size="14" lengthAdjust="spacing" textLength="137.8809" x="448.9448" y="244.4639">ControleNotificacao</text><line style="stroke:#181818;stroke-width:0.5;" x1="354" x2="649.2705" y1="252.7656" y2="252.7656"/><line style="stroke:#181818;stroke-width:0.5;" x1="354" x2="649.2705" y1="260.7656" y2="260.7656"/><text fill="#000000" font-family="sans-serif" font-size="14" lengthAdjust="spacing" textLength="285.2705" x="359" y="277.7607">+listar(usuarioId: int): List&lt;Notificacao&gt;</text><text fill="#000000" font-family="sans-serif" font-size="14" lengthAdjust="spacing" textLength="142.0098" x="359" y="294.0576">+marcarLida(id: int)</text></g><!--class Notificacao--><g class="entity" data-entity="Notificacao" data-source-line="16" data-uid="ent0005" id="entity_Notificacao"><rect fill="#F1F1F1" height="170.3438" rx="2.5" ry="2.5" style="stroke:#181818;stroke-width:0.5;" width="154.3584" x="7" y="7"/><ellipse cx="41.8022" cy="27.1328" fill="#ADD1B2" rx="11" ry="11" style="stroke:#181818;stroke-width:1;"/><path d="M44.7709,32.7734 Q44.1928,33.0703 43.5522,33.2109 Q42.9116,33.3672 42.2084,33.3672 Q39.7084,33.3672 38.3803,31.7266 Q37.0678,30.0703 37.0678,26.9453 Q37.0678,23.8203 38.3803,22.1641 Q39.7084,20.5078 42.2084,20.5078 Q42.9116,20.5078 43.5522,20.6641 Q44.2084,20.8203 44.7709,21.1172 L44.7709,23.8359 Q44.1459,23.2578 43.5522,22.9922 Q42.9584,22.7109 42.3334,22.7109 Q40.9897,22.7109 40.3022,23.7891 Q39.6147,24.8516 39.6147,26.9453 Q39.6147,29.0391 40.3022,30.1172 Q40.9897,31.1797 42.3334,31.1797 Q42.9584,31.1797 43.5522,30.9141 Q44.1459,30.6328 44.7709,30.0547 L44.7709,32.7734 Z " fill="#000000"/><text fill="#000000" font-family="sans-serif" font-size="12" font-style="italic" lengthAdjust="spacing" textLength="49.6465" x="74.5562" y="23.1387">&#171;entity&#187;</text><text fill="#000000" font-family="sans-serif" font-size="14" lengthAdjust="spacing" textLength="78.3535" x="60.2027" y="38.9639">Notificacao</text><line style="stroke:#181818;stroke-width:0.5;" x1="8" x2="160.3584" y1="47.2656" y2="47.2656"/><text fill="#000000" font-family="sans-serif" font-size="14" lengthAdjust="spacing" textLength="40.7969" x="13" y="64.2607">-id:int</text><text fill="#000000" font-family="sans-serif" font-size="14" lengthAdjust="spacing" textLength="92.8662" x="13" y="80.5576">-usuarioId:int</text><text fill="#000000" font-family="sans-serif" font-size="14" lengthAdjust="spacing" textLength="128.0918" x="13" y="96.8545">-mensagem:string</text><text fill="#000000" font-family="sans-serif" font-size="14" lengthAdjust="spacing" textLength="76.7881" x="13" y="113.1514">-tipo:string</text><text fill="#000000" font-family="sans-serif" font-size="14" lengthAdjust="spacing" textLength="90.9863" x="13" y="129.4482">-lida:boolean</text><text fill="#000000" font-family="sans-serif" font-size="14" lengthAdjust="spacing" textLength="104.501" x="13" y="145.7451">-data:datetime</text><line style="stroke:#181818;stroke-width:0.5;" x1="8" x2="160.3584" y1="153.0469" y2="153.0469"/><text fill="#000000" font-family="sans-serif" font-size="14" lengthAdjust="spacing" textLength="142.3584" x="13" y="170.042">+marcarComoLida()</text></g><!--class INotificacaoRepository--><g class="entity" data-entity="INotificacaoRepository" data-source-line="26" data-uid="ent0006" id="entity_INotificacaoRepository"><rect fill="#F1F1F1" height="80.5938" rx="2.5" ry="2.5" style="stroke:#181818;stroke-width:0.5;" width="360.0449" x="711" y="266.5"/><ellipse cx="807.9951" cy="282.5" fill="#B4A7E5" rx="11" ry="11" style="stroke:#181818;stroke-width:1;"/><path d="M803.917,278.2656 L803.917,276.1094 L811.3076,276.1094 L811.3076,278.2656 L808.8389,278.2656 L808.8389,286.3438 L811.3076,286.3438 L811.3076,288.5 L803.917,288.5 L803.917,286.3438 L806.3857,286.3438 L806.3857,278.2656 L803.917,278.2656 Z " fill="#000000"/><text fill="#000000" font-family="sans-serif" font-size="14" font-style="italic" lengthAdjust="spacing" textLength="157.5547" x="828.4951" y="287.3467">INotificacaoRepository</text><line style="stroke:#181818;stroke-width:0.5;" x1="712" x2="1070.0449" y1="298.5" y2="298.5"/><line style="stroke:#181818;stroke-width:0.5;" x1="712" x2="1070.0449" y1="306.5" y2="306.5"/><text fill="#000000" font-family="sans-serif" font-size="14" lengthAdjust="spacing" textLength="348.0449" x="717" y="323.4951">+findByUsuario(usuarioId: int): List&lt;Notificacao&gt;</text><text fill="#000000" font-family="sans-serif" font-size="14" lengthAdjust="spacing" textLength="151.8193" x="717" y="339.792">+save(n: Notificacao)</text></g><!--link ControleNotificacao to IVisualizarNotificacoes--><g class="link" data-entity-1="ControleNotificacao" data-entity-2="IVisualizarNotificacoes" data-source-line="31" data-uid="lnk7" id="link_ControleNotificacao_IVisualizarNotificacoes"><path codeLine="31" d="M650.1,237.95 C699.19,231.62 734.6181,227.0543 778.4681,221.3943" fill="none" id="ControleNotificacao-to-IVisualizarNotificacoes" style="stroke:#181818;stroke-width:1;stroke-dasharray:7,7;"/><polygon fill="none" points="796.32,219.09,777.7,215.4436,779.2362,227.3449,796.32,219.09" style="stroke:#181818;stroke-width:1;"/></g><!--link TelaNotificacoes to ControleNotificacao--><g class="link" data-entity-1="TelaNotificacoes" data-entity-2="ControleNotificacao" data-source-line="32" data-uid="lnk8" id="link_TelaNotificacoes_ControleNotificacao"><path codeLine="32" d="M161.21,257 C214.74,257 282.07,257 346.86,257" fill="none" id="TelaNotificacoes-to-ControleNotificacao" style="stroke:#181818;stroke-width:1;"/><polygon fill="#181818" points="352.86,257,343.86,253,347.86,257,343.86,261,352.86,257" style="stroke:#181818;stroke-width:1;"/><text fill="#000000" font-family="sans-serif" font-size="13" lengthAdjust="spacing" textLength="130.5776" x="192" y="253.0669">listar()/marcarLida()</text></g><!--link ControleNotificacao to INotificacaoRepository--><g class="link" data-entity-1="ControleNotificacao" data-entity-2="INotificacaoRepository" data-source-line="33" data-uid="lnk9" id="link_ControleNotificacao_INotificacaoRepository"><path codeLine="33" d="M650.1,276.05 C669.99,278.61 684.619,280.5046 704.989,283.1246" fill="none" id="ControleNotificacao-to-INotificacaoRepository" style="stroke:#181818;stroke-width:1;stroke-dasharray:7,7;"/><polygon fill="#181818" points="710.94,283.89,702.5238,278.7746,705.9809,283.2522,701.5033,286.7092,710.94,283.89" style="stroke:#181818;stroke-width:1;"/></g><!--SRC=[ZLBBRW8n3BpdAtnaXMXxNg6LMav8g8U-xYRhfLQpCKgybQ3jlpSDXQO292vHFB9dne_undwD0Nkm3cEyLGsy79JcLlmZRmbkZADEGGK2hruLMWvabSKRmrufT6W9vYyS1tIynN0loXrRj4BHc4mAJ-Imn64wNShWMmoRfe4FC01ZS1mLmwZAGO_1ObXmYoDkQqXA5PYlFTzCl0PnTE14IPHsXnun3ibQO9d_yjImIFYqg6qkaFmlHLvPi_TKEe6KdzBpzqziZ_Ja8wwehsCQhLzbJ7ajPUoIQhsKr1Bw3BIeMAU7b7igxCsabson-h5MBA3mzq1hYQmIDjdU63hsxTtcUUViqd54VAUHhyl6i-QfsLzTVJPdR-1e-PD9StA3zU44hejTL6SKcpCzVmC0]--></g></svg>